%
M48
M72
T01C0.01575
T02C0.03150
T03C0.03200
T04C0.03937
T05C0.04000
T06C0.05118
T07C0.06693
T08C0.11811
%
T01
X28072Y36546
X27678Y52294
X30434Y81822
X38308Y81035
X37520Y86546
X39489Y95602
X48938Y95208
X58387Y100326
X58387Y128672
X58387Y160956
X58387Y189302
X63505Y207806
X81615Y207806
X83583Y196389
X94213Y202294
X98544Y209775
X105237Y205444
X113111Y206231
X118229Y193633
X125316Y186153
X133190Y193633
X135158Y225523
X129253Y225523
X131615Y242452
X126497Y245208
X29646Y153082
X28465Y172373
X25316Y194027
X22560Y212924
X18623Y219617
X21379Y227491
X28072Y230641
X29253Y131822
X28072Y112137
X28859Y95995
X38702Y74735
X39489Y70011
X35946Y53082
X46182Y53082
X49331Y36940
X61143Y37334
X69804Y43633
X77284Y54657
T02
X103387Y45287
X103387Y55287
X103387Y65287
X103387Y75287
X103387Y85287
X103387Y95287
X103387Y105287
X103387Y115287
X103387Y125287
X103387Y135287
X103387Y145287
X103387Y155287
X103387Y165287
X103387Y175287
X103387Y185287
X13387Y65287
X13387Y75287
X13387Y85287
X13387Y95287
X13387Y105287
X13387Y115287
X13387Y125287
X13387Y135287
X13387Y145287
X13387Y155287
X13387Y165287
X13387Y175287
X13387Y185287
X13387Y55287
X13387Y45287
T03
X43387Y106901
X43387Y116901
X43387Y126901
X43387Y136901
X43387Y146901
X43387Y156901
X43387Y166901
X43387Y176901
X43387Y186901
X43387Y196901
X73387Y196901
X73387Y186901
X73387Y176901
X73387Y166901
X73387Y156901
X73387Y146901
X73387Y136901
X73387Y126901
X73387Y116901
X73387Y106901
X114292Y127609
X114292Y137609
X121379Y149657
X121379Y159657
X125316Y193720
X125316Y207720
X132316Y233397
X118316Y233397
X106812Y223043
X106812Y213043
X135158Y164657
X135158Y144657
X135158Y125287
X135158Y105287
X121379Y110287
X121379Y120287
T04
X80040Y24735
X36733Y24735
T05
X116416Y23746
X116416Y49346
X116416Y63117
X116416Y88717
X134216Y88717
X134216Y63117
X134216Y49346
X134216Y23746
T06
X88387Y221586
X68387Y221586
X48387Y221586
X28387Y221586
T07
X48544Y64106
X68229Y64106
T08
X30828Y64106
X100906Y28279
X121379Y174342
X15080Y241271
M30
