G75*
%MOIN*%
%OFA0B0*%
%FSLAX25Y25*%
%IPPOS*%
%LPD*%
%AMOC8*
5,1,8,0,0,1.08239X$1,22.5*
%
%ADD10C,0.00000*%
%ADD11C,0.05200*%
%ADD12C,0.07600*%
%ADD13C,0.06693*%
%ADD14C,0.11811*%
%ADD15C,0.07677*%
%ADD16C,0.07400*%
%ADD17OC8,0.06300*%
%ADD18C,0.06300*%
%ADD19OC8,0.05200*%
%ADD20OC8,0.06600*%
%ADD21C,0.00600*%
%ADD22C,0.02775*%
%ADD23C,0.03200*%
%ADD24C,0.10000*%
%ADD25C,0.05000*%
%ADD26C,0.04000*%
D10*
X0007206Y0016861D02*
X0137127Y0016861D01*
X0137251Y0016863D01*
X0137374Y0016869D01*
X0137498Y0016878D01*
X0137620Y0016892D01*
X0137743Y0016909D01*
X0137865Y0016931D01*
X0137986Y0016956D01*
X0138106Y0016985D01*
X0138225Y0017017D01*
X0138344Y0017054D01*
X0138461Y0017094D01*
X0138576Y0017137D01*
X0138691Y0017185D01*
X0138803Y0017236D01*
X0138914Y0017290D01*
X0139024Y0017348D01*
X0139131Y0017409D01*
X0139237Y0017474D01*
X0139340Y0017542D01*
X0139441Y0017613D01*
X0139540Y0017687D01*
X0139637Y0017764D01*
X0139731Y0017845D01*
X0139822Y0017928D01*
X0139911Y0018014D01*
X0139997Y0018103D01*
X0140080Y0018194D01*
X0140161Y0018288D01*
X0140238Y0018385D01*
X0140312Y0018484D01*
X0140383Y0018585D01*
X0140451Y0018688D01*
X0140516Y0018794D01*
X0140577Y0018901D01*
X0140635Y0019011D01*
X0140689Y0019122D01*
X0140740Y0019234D01*
X0140788Y0019349D01*
X0140831Y0019464D01*
X0140871Y0019581D01*
X0140908Y0019700D01*
X0140940Y0019819D01*
X0140969Y0019939D01*
X0140994Y0020060D01*
X0141016Y0020182D01*
X0141033Y0020305D01*
X0141047Y0020427D01*
X0141056Y0020551D01*
X0141062Y0020674D01*
X0141064Y0020798D01*
X0141064Y0249145D01*
X0141062Y0249269D01*
X0141056Y0249392D01*
X0141047Y0249516D01*
X0141033Y0249638D01*
X0141016Y0249761D01*
X0140994Y0249883D01*
X0140969Y0250004D01*
X0140940Y0250124D01*
X0140908Y0250243D01*
X0140871Y0250362D01*
X0140831Y0250479D01*
X0140788Y0250594D01*
X0140740Y0250709D01*
X0140689Y0250821D01*
X0140635Y0250932D01*
X0140577Y0251042D01*
X0140516Y0251149D01*
X0140451Y0251255D01*
X0140383Y0251358D01*
X0140312Y0251459D01*
X0140238Y0251558D01*
X0140161Y0251655D01*
X0140080Y0251749D01*
X0139997Y0251840D01*
X0139911Y0251929D01*
X0139822Y0252015D01*
X0139731Y0252098D01*
X0139637Y0252179D01*
X0139540Y0252256D01*
X0139441Y0252330D01*
X0139340Y0252401D01*
X0139237Y0252469D01*
X0139131Y0252534D01*
X0139024Y0252595D01*
X0138914Y0252653D01*
X0138803Y0252707D01*
X0138691Y0252758D01*
X0138576Y0252806D01*
X0138461Y0252849D01*
X0138344Y0252889D01*
X0138225Y0252926D01*
X0138106Y0252958D01*
X0137986Y0252987D01*
X0137865Y0253012D01*
X0137743Y0253034D01*
X0137620Y0253051D01*
X0137498Y0253065D01*
X0137374Y0253074D01*
X0137251Y0253080D01*
X0137127Y0253082D01*
X0007206Y0253082D01*
X0007082Y0253080D01*
X0006959Y0253074D01*
X0006835Y0253065D01*
X0006713Y0253051D01*
X0006590Y0253034D01*
X0006468Y0253012D01*
X0006347Y0252987D01*
X0006227Y0252958D01*
X0006108Y0252926D01*
X0005989Y0252889D01*
X0005872Y0252849D01*
X0005757Y0252806D01*
X0005642Y0252758D01*
X0005530Y0252707D01*
X0005419Y0252653D01*
X0005309Y0252595D01*
X0005202Y0252534D01*
X0005096Y0252469D01*
X0004993Y0252401D01*
X0004892Y0252330D01*
X0004793Y0252256D01*
X0004696Y0252179D01*
X0004602Y0252098D01*
X0004511Y0252015D01*
X0004422Y0251929D01*
X0004336Y0251840D01*
X0004253Y0251749D01*
X0004172Y0251655D01*
X0004095Y0251558D01*
X0004021Y0251459D01*
X0003950Y0251358D01*
X0003882Y0251255D01*
X0003817Y0251149D01*
X0003756Y0251042D01*
X0003698Y0250932D01*
X0003644Y0250821D01*
X0003593Y0250709D01*
X0003545Y0250594D01*
X0003502Y0250479D01*
X0003462Y0250362D01*
X0003425Y0250243D01*
X0003393Y0250124D01*
X0003364Y0250004D01*
X0003339Y0249883D01*
X0003317Y0249761D01*
X0003300Y0249638D01*
X0003286Y0249516D01*
X0003277Y0249392D01*
X0003271Y0249269D01*
X0003269Y0249145D01*
X0003269Y0020798D01*
X0003271Y0020674D01*
X0003277Y0020551D01*
X0003286Y0020427D01*
X0003300Y0020305D01*
X0003317Y0020182D01*
X0003339Y0020060D01*
X0003364Y0019939D01*
X0003393Y0019819D01*
X0003425Y0019700D01*
X0003462Y0019581D01*
X0003502Y0019464D01*
X0003545Y0019349D01*
X0003593Y0019234D01*
X0003644Y0019122D01*
X0003698Y0019011D01*
X0003756Y0018901D01*
X0003817Y0018794D01*
X0003882Y0018688D01*
X0003950Y0018585D01*
X0004021Y0018484D01*
X0004095Y0018385D01*
X0004172Y0018288D01*
X0004253Y0018194D01*
X0004336Y0018103D01*
X0004422Y0018014D01*
X0004511Y0017928D01*
X0004602Y0017845D01*
X0004696Y0017764D01*
X0004793Y0017687D01*
X0004892Y0017613D01*
X0004993Y0017542D01*
X0005096Y0017474D01*
X0005202Y0017409D01*
X0005309Y0017348D01*
X0005419Y0017290D01*
X0005530Y0017236D01*
X0005642Y0017185D01*
X0005757Y0017137D01*
X0005872Y0017094D01*
X0005989Y0017054D01*
X0006108Y0017017D01*
X0006227Y0016985D01*
X0006347Y0016956D01*
X0006468Y0016931D01*
X0006590Y0016909D01*
X0006713Y0016892D01*
X0006835Y0016878D01*
X0006959Y0016869D01*
X0007082Y0016863D01*
X0007206Y0016861D01*
X0024922Y0064106D02*
X0024924Y0064259D01*
X0024930Y0064413D01*
X0024940Y0064566D01*
X0024954Y0064718D01*
X0024972Y0064871D01*
X0024994Y0065022D01*
X0025019Y0065173D01*
X0025049Y0065324D01*
X0025083Y0065474D01*
X0025120Y0065622D01*
X0025161Y0065770D01*
X0025206Y0065916D01*
X0025255Y0066062D01*
X0025308Y0066206D01*
X0025364Y0066348D01*
X0025424Y0066489D01*
X0025488Y0066629D01*
X0025555Y0066767D01*
X0025626Y0066903D01*
X0025701Y0067037D01*
X0025778Y0067169D01*
X0025860Y0067299D01*
X0025944Y0067427D01*
X0026032Y0067553D01*
X0026123Y0067676D01*
X0026217Y0067797D01*
X0026315Y0067915D01*
X0026415Y0068031D01*
X0026519Y0068144D01*
X0026625Y0068255D01*
X0026734Y0068363D01*
X0026846Y0068468D01*
X0026960Y0068569D01*
X0027078Y0068668D01*
X0027197Y0068764D01*
X0027319Y0068857D01*
X0027444Y0068946D01*
X0027571Y0069033D01*
X0027700Y0069115D01*
X0027831Y0069195D01*
X0027964Y0069271D01*
X0028099Y0069344D01*
X0028236Y0069413D01*
X0028375Y0069478D01*
X0028515Y0069540D01*
X0028657Y0069598D01*
X0028800Y0069653D01*
X0028945Y0069704D01*
X0029091Y0069751D01*
X0029238Y0069794D01*
X0029386Y0069833D01*
X0029535Y0069869D01*
X0029685Y0069900D01*
X0029836Y0069928D01*
X0029987Y0069952D01*
X0030140Y0069972D01*
X0030292Y0069988D01*
X0030445Y0070000D01*
X0030598Y0070008D01*
X0030751Y0070012D01*
X0030905Y0070012D01*
X0031058Y0070008D01*
X0031211Y0070000D01*
X0031364Y0069988D01*
X0031516Y0069972D01*
X0031669Y0069952D01*
X0031820Y0069928D01*
X0031971Y0069900D01*
X0032121Y0069869D01*
X0032270Y0069833D01*
X0032418Y0069794D01*
X0032565Y0069751D01*
X0032711Y0069704D01*
X0032856Y0069653D01*
X0032999Y0069598D01*
X0033141Y0069540D01*
X0033281Y0069478D01*
X0033420Y0069413D01*
X0033557Y0069344D01*
X0033692Y0069271D01*
X0033825Y0069195D01*
X0033956Y0069115D01*
X0034085Y0069033D01*
X0034212Y0068946D01*
X0034337Y0068857D01*
X0034459Y0068764D01*
X0034578Y0068668D01*
X0034696Y0068569D01*
X0034810Y0068468D01*
X0034922Y0068363D01*
X0035031Y0068255D01*
X0035137Y0068144D01*
X0035241Y0068031D01*
X0035341Y0067915D01*
X0035439Y0067797D01*
X0035533Y0067676D01*
X0035624Y0067553D01*
X0035712Y0067427D01*
X0035796Y0067299D01*
X0035878Y0067169D01*
X0035955Y0067037D01*
X0036030Y0066903D01*
X0036101Y0066767D01*
X0036168Y0066629D01*
X0036232Y0066489D01*
X0036292Y0066348D01*
X0036348Y0066206D01*
X0036401Y0066062D01*
X0036450Y0065916D01*
X0036495Y0065770D01*
X0036536Y0065622D01*
X0036573Y0065474D01*
X0036607Y0065324D01*
X0036637Y0065173D01*
X0036662Y0065022D01*
X0036684Y0064871D01*
X0036702Y0064718D01*
X0036716Y0064566D01*
X0036726Y0064413D01*
X0036732Y0064259D01*
X0036734Y0064106D01*
X0036732Y0063953D01*
X0036726Y0063799D01*
X0036716Y0063646D01*
X0036702Y0063494D01*
X0036684Y0063341D01*
X0036662Y0063190D01*
X0036637Y0063039D01*
X0036607Y0062888D01*
X0036573Y0062738D01*
X0036536Y0062590D01*
X0036495Y0062442D01*
X0036450Y0062296D01*
X0036401Y0062150D01*
X0036348Y0062006D01*
X0036292Y0061864D01*
X0036232Y0061723D01*
X0036168Y0061583D01*
X0036101Y0061445D01*
X0036030Y0061309D01*
X0035955Y0061175D01*
X0035878Y0061043D01*
X0035796Y0060913D01*
X0035712Y0060785D01*
X0035624Y0060659D01*
X0035533Y0060536D01*
X0035439Y0060415D01*
X0035341Y0060297D01*
X0035241Y0060181D01*
X0035137Y0060068D01*
X0035031Y0059957D01*
X0034922Y0059849D01*
X0034810Y0059744D01*
X0034696Y0059643D01*
X0034578Y0059544D01*
X0034459Y0059448D01*
X0034337Y0059355D01*
X0034212Y0059266D01*
X0034085Y0059179D01*
X0033956Y0059097D01*
X0033825Y0059017D01*
X0033692Y0058941D01*
X0033557Y0058868D01*
X0033420Y0058799D01*
X0033281Y0058734D01*
X0033141Y0058672D01*
X0032999Y0058614D01*
X0032856Y0058559D01*
X0032711Y0058508D01*
X0032565Y0058461D01*
X0032418Y0058418D01*
X0032270Y0058379D01*
X0032121Y0058343D01*
X0031971Y0058312D01*
X0031820Y0058284D01*
X0031669Y0058260D01*
X0031516Y0058240D01*
X0031364Y0058224D01*
X0031211Y0058212D01*
X0031058Y0058204D01*
X0030905Y0058200D01*
X0030751Y0058200D01*
X0030598Y0058204D01*
X0030445Y0058212D01*
X0030292Y0058224D01*
X0030140Y0058240D01*
X0029987Y0058260D01*
X0029836Y0058284D01*
X0029685Y0058312D01*
X0029535Y0058343D01*
X0029386Y0058379D01*
X0029238Y0058418D01*
X0029091Y0058461D01*
X0028945Y0058508D01*
X0028800Y0058559D01*
X0028657Y0058614D01*
X0028515Y0058672D01*
X0028375Y0058734D01*
X0028236Y0058799D01*
X0028099Y0058868D01*
X0027964Y0058941D01*
X0027831Y0059017D01*
X0027700Y0059097D01*
X0027571Y0059179D01*
X0027444Y0059266D01*
X0027319Y0059355D01*
X0027197Y0059448D01*
X0027078Y0059544D01*
X0026960Y0059643D01*
X0026846Y0059744D01*
X0026734Y0059849D01*
X0026625Y0059957D01*
X0026519Y0060068D01*
X0026415Y0060181D01*
X0026315Y0060297D01*
X0026217Y0060415D01*
X0026123Y0060536D01*
X0026032Y0060659D01*
X0025944Y0060785D01*
X0025860Y0060913D01*
X0025778Y0061043D01*
X0025701Y0061175D01*
X0025626Y0061309D01*
X0025555Y0061445D01*
X0025488Y0061583D01*
X0025424Y0061723D01*
X0025364Y0061864D01*
X0025308Y0062006D01*
X0025255Y0062150D01*
X0025206Y0062296D01*
X0025161Y0062442D01*
X0025120Y0062590D01*
X0025083Y0062738D01*
X0025049Y0062888D01*
X0025019Y0063039D01*
X0024994Y0063190D01*
X0024972Y0063341D01*
X0024954Y0063494D01*
X0024940Y0063646D01*
X0024930Y0063799D01*
X0024924Y0063953D01*
X0024922Y0064106D01*
X0095000Y0028279D02*
X0095002Y0028432D01*
X0095008Y0028586D01*
X0095018Y0028739D01*
X0095032Y0028891D01*
X0095050Y0029044D01*
X0095072Y0029195D01*
X0095097Y0029346D01*
X0095127Y0029497D01*
X0095161Y0029647D01*
X0095198Y0029795D01*
X0095239Y0029943D01*
X0095284Y0030089D01*
X0095333Y0030235D01*
X0095386Y0030379D01*
X0095442Y0030521D01*
X0095502Y0030662D01*
X0095566Y0030802D01*
X0095633Y0030940D01*
X0095704Y0031076D01*
X0095779Y0031210D01*
X0095856Y0031342D01*
X0095938Y0031472D01*
X0096022Y0031600D01*
X0096110Y0031726D01*
X0096201Y0031849D01*
X0096295Y0031970D01*
X0096393Y0032088D01*
X0096493Y0032204D01*
X0096597Y0032317D01*
X0096703Y0032428D01*
X0096812Y0032536D01*
X0096924Y0032641D01*
X0097038Y0032742D01*
X0097156Y0032841D01*
X0097275Y0032937D01*
X0097397Y0033030D01*
X0097522Y0033119D01*
X0097649Y0033206D01*
X0097778Y0033288D01*
X0097909Y0033368D01*
X0098042Y0033444D01*
X0098177Y0033517D01*
X0098314Y0033586D01*
X0098453Y0033651D01*
X0098593Y0033713D01*
X0098735Y0033771D01*
X0098878Y0033826D01*
X0099023Y0033877D01*
X0099169Y0033924D01*
X0099316Y0033967D01*
X0099464Y0034006D01*
X0099613Y0034042D01*
X0099763Y0034073D01*
X0099914Y0034101D01*
X0100065Y0034125D01*
X0100218Y0034145D01*
X0100370Y0034161D01*
X0100523Y0034173D01*
X0100676Y0034181D01*
X0100829Y0034185D01*
X0100983Y0034185D01*
X0101136Y0034181D01*
X0101289Y0034173D01*
X0101442Y0034161D01*
X0101594Y0034145D01*
X0101747Y0034125D01*
X0101898Y0034101D01*
X0102049Y0034073D01*
X0102199Y0034042D01*
X0102348Y0034006D01*
X0102496Y0033967D01*
X0102643Y0033924D01*
X0102789Y0033877D01*
X0102934Y0033826D01*
X0103077Y0033771D01*
X0103219Y0033713D01*
X0103359Y0033651D01*
X0103498Y0033586D01*
X0103635Y0033517D01*
X0103770Y0033444D01*
X0103903Y0033368D01*
X0104034Y0033288D01*
X0104163Y0033206D01*
X0104290Y0033119D01*
X0104415Y0033030D01*
X0104537Y0032937D01*
X0104656Y0032841D01*
X0104774Y0032742D01*
X0104888Y0032641D01*
X0105000Y0032536D01*
X0105109Y0032428D01*
X0105215Y0032317D01*
X0105319Y0032204D01*
X0105419Y0032088D01*
X0105517Y0031970D01*
X0105611Y0031849D01*
X0105702Y0031726D01*
X0105790Y0031600D01*
X0105874Y0031472D01*
X0105956Y0031342D01*
X0106033Y0031210D01*
X0106108Y0031076D01*
X0106179Y0030940D01*
X0106246Y0030802D01*
X0106310Y0030662D01*
X0106370Y0030521D01*
X0106426Y0030379D01*
X0106479Y0030235D01*
X0106528Y0030089D01*
X0106573Y0029943D01*
X0106614Y0029795D01*
X0106651Y0029647D01*
X0106685Y0029497D01*
X0106715Y0029346D01*
X0106740Y0029195D01*
X0106762Y0029044D01*
X0106780Y0028891D01*
X0106794Y0028739D01*
X0106804Y0028586D01*
X0106810Y0028432D01*
X0106812Y0028279D01*
X0106810Y0028126D01*
X0106804Y0027972D01*
X0106794Y0027819D01*
X0106780Y0027667D01*
X0106762Y0027514D01*
X0106740Y0027363D01*
X0106715Y0027212D01*
X0106685Y0027061D01*
X0106651Y0026911D01*
X0106614Y0026763D01*
X0106573Y0026615D01*
X0106528Y0026469D01*
X0106479Y0026323D01*
X0106426Y0026179D01*
X0106370Y0026037D01*
X0106310Y0025896D01*
X0106246Y0025756D01*
X0106179Y0025618D01*
X0106108Y0025482D01*
X0106033Y0025348D01*
X0105956Y0025216D01*
X0105874Y0025086D01*
X0105790Y0024958D01*
X0105702Y0024832D01*
X0105611Y0024709D01*
X0105517Y0024588D01*
X0105419Y0024470D01*
X0105319Y0024354D01*
X0105215Y0024241D01*
X0105109Y0024130D01*
X0105000Y0024022D01*
X0104888Y0023917D01*
X0104774Y0023816D01*
X0104656Y0023717D01*
X0104537Y0023621D01*
X0104415Y0023528D01*
X0104290Y0023439D01*
X0104163Y0023352D01*
X0104034Y0023270D01*
X0103903Y0023190D01*
X0103770Y0023114D01*
X0103635Y0023041D01*
X0103498Y0022972D01*
X0103359Y0022907D01*
X0103219Y0022845D01*
X0103077Y0022787D01*
X0102934Y0022732D01*
X0102789Y0022681D01*
X0102643Y0022634D01*
X0102496Y0022591D01*
X0102348Y0022552D01*
X0102199Y0022516D01*
X0102049Y0022485D01*
X0101898Y0022457D01*
X0101747Y0022433D01*
X0101594Y0022413D01*
X0101442Y0022397D01*
X0101289Y0022385D01*
X0101136Y0022377D01*
X0100983Y0022373D01*
X0100829Y0022373D01*
X0100676Y0022377D01*
X0100523Y0022385D01*
X0100370Y0022397D01*
X0100218Y0022413D01*
X0100065Y0022433D01*
X0099914Y0022457D01*
X0099763Y0022485D01*
X0099613Y0022516D01*
X0099464Y0022552D01*
X0099316Y0022591D01*
X0099169Y0022634D01*
X0099023Y0022681D01*
X0098878Y0022732D01*
X0098735Y0022787D01*
X0098593Y0022845D01*
X0098453Y0022907D01*
X0098314Y0022972D01*
X0098177Y0023041D01*
X0098042Y0023114D01*
X0097909Y0023190D01*
X0097778Y0023270D01*
X0097649Y0023352D01*
X0097522Y0023439D01*
X0097397Y0023528D01*
X0097275Y0023621D01*
X0097156Y0023717D01*
X0097038Y0023816D01*
X0096924Y0023917D01*
X0096812Y0024022D01*
X0096703Y0024130D01*
X0096597Y0024241D01*
X0096493Y0024354D01*
X0096393Y0024470D01*
X0096295Y0024588D01*
X0096201Y0024709D01*
X0096110Y0024832D01*
X0096022Y0024958D01*
X0095938Y0025086D01*
X0095856Y0025216D01*
X0095779Y0025348D01*
X0095704Y0025482D01*
X0095633Y0025618D01*
X0095566Y0025756D01*
X0095502Y0025896D01*
X0095442Y0026037D01*
X0095386Y0026179D01*
X0095333Y0026323D01*
X0095284Y0026469D01*
X0095239Y0026615D01*
X0095198Y0026763D01*
X0095161Y0026911D01*
X0095127Y0027061D01*
X0095097Y0027212D01*
X0095072Y0027363D01*
X0095050Y0027514D01*
X0095032Y0027667D01*
X0095018Y0027819D01*
X0095008Y0027972D01*
X0095002Y0028126D01*
X0095000Y0028279D01*
X0115473Y0174342D02*
X0115475Y0174495D01*
X0115481Y0174649D01*
X0115491Y0174802D01*
X0115505Y0174954D01*
X0115523Y0175107D01*
X0115545Y0175258D01*
X0115570Y0175409D01*
X0115600Y0175560D01*
X0115634Y0175710D01*
X0115671Y0175858D01*
X0115712Y0176006D01*
X0115757Y0176152D01*
X0115806Y0176298D01*
X0115859Y0176442D01*
X0115915Y0176584D01*
X0115975Y0176725D01*
X0116039Y0176865D01*
X0116106Y0177003D01*
X0116177Y0177139D01*
X0116252Y0177273D01*
X0116329Y0177405D01*
X0116411Y0177535D01*
X0116495Y0177663D01*
X0116583Y0177789D01*
X0116674Y0177912D01*
X0116768Y0178033D01*
X0116866Y0178151D01*
X0116966Y0178267D01*
X0117070Y0178380D01*
X0117176Y0178491D01*
X0117285Y0178599D01*
X0117397Y0178704D01*
X0117511Y0178805D01*
X0117629Y0178904D01*
X0117748Y0179000D01*
X0117870Y0179093D01*
X0117995Y0179182D01*
X0118122Y0179269D01*
X0118251Y0179351D01*
X0118382Y0179431D01*
X0118515Y0179507D01*
X0118650Y0179580D01*
X0118787Y0179649D01*
X0118926Y0179714D01*
X0119066Y0179776D01*
X0119208Y0179834D01*
X0119351Y0179889D01*
X0119496Y0179940D01*
X0119642Y0179987D01*
X0119789Y0180030D01*
X0119937Y0180069D01*
X0120086Y0180105D01*
X0120236Y0180136D01*
X0120387Y0180164D01*
X0120538Y0180188D01*
X0120691Y0180208D01*
X0120843Y0180224D01*
X0120996Y0180236D01*
X0121149Y0180244D01*
X0121302Y0180248D01*
X0121456Y0180248D01*
X0121609Y0180244D01*
X0121762Y0180236D01*
X0121915Y0180224D01*
X0122067Y0180208D01*
X0122220Y0180188D01*
X0122371Y0180164D01*
X0122522Y0180136D01*
X0122672Y0180105D01*
X0122821Y0180069D01*
X0122969Y0180030D01*
X0123116Y0179987D01*
X0123262Y0179940D01*
X0123407Y0179889D01*
X0123550Y0179834D01*
X0123692Y0179776D01*
X0123832Y0179714D01*
X0123971Y0179649D01*
X0124108Y0179580D01*
X0124243Y0179507D01*
X0124376Y0179431D01*
X0124507Y0179351D01*
X0124636Y0179269D01*
X0124763Y0179182D01*
X0124888Y0179093D01*
X0125010Y0179000D01*
X0125129Y0178904D01*
X0125247Y0178805D01*
X0125361Y0178704D01*
X0125473Y0178599D01*
X0125582Y0178491D01*
X0125688Y0178380D01*
X0125792Y0178267D01*
X0125892Y0178151D01*
X0125990Y0178033D01*
X0126084Y0177912D01*
X0126175Y0177789D01*
X0126263Y0177663D01*
X0126347Y0177535D01*
X0126429Y0177405D01*
X0126506Y0177273D01*
X0126581Y0177139D01*
X0126652Y0177003D01*
X0126719Y0176865D01*
X0126783Y0176725D01*
X0126843Y0176584D01*
X0126899Y0176442D01*
X0126952Y0176298D01*
X0127001Y0176152D01*
X0127046Y0176006D01*
X0127087Y0175858D01*
X0127124Y0175710D01*
X0127158Y0175560D01*
X0127188Y0175409D01*
X0127213Y0175258D01*
X0127235Y0175107D01*
X0127253Y0174954D01*
X0127267Y0174802D01*
X0127277Y0174649D01*
X0127283Y0174495D01*
X0127285Y0174342D01*
X0127283Y0174189D01*
X0127277Y0174035D01*
X0127267Y0173882D01*
X0127253Y0173730D01*
X0127235Y0173577D01*
X0127213Y0173426D01*
X0127188Y0173275D01*
X0127158Y0173124D01*
X0127124Y0172974D01*
X0127087Y0172826D01*
X0127046Y0172678D01*
X0127001Y0172532D01*
X0126952Y0172386D01*
X0126899Y0172242D01*
X0126843Y0172100D01*
X0126783Y0171959D01*
X0126719Y0171819D01*
X0126652Y0171681D01*
X0126581Y0171545D01*
X0126506Y0171411D01*
X0126429Y0171279D01*
X0126347Y0171149D01*
X0126263Y0171021D01*
X0126175Y0170895D01*
X0126084Y0170772D01*
X0125990Y0170651D01*
X0125892Y0170533D01*
X0125792Y0170417D01*
X0125688Y0170304D01*
X0125582Y0170193D01*
X0125473Y0170085D01*
X0125361Y0169980D01*
X0125247Y0169879D01*
X0125129Y0169780D01*
X0125010Y0169684D01*
X0124888Y0169591D01*
X0124763Y0169502D01*
X0124636Y0169415D01*
X0124507Y0169333D01*
X0124376Y0169253D01*
X0124243Y0169177D01*
X0124108Y0169104D01*
X0123971Y0169035D01*
X0123832Y0168970D01*
X0123692Y0168908D01*
X0123550Y0168850D01*
X0123407Y0168795D01*
X0123262Y0168744D01*
X0123116Y0168697D01*
X0122969Y0168654D01*
X0122821Y0168615D01*
X0122672Y0168579D01*
X0122522Y0168548D01*
X0122371Y0168520D01*
X0122220Y0168496D01*
X0122067Y0168476D01*
X0121915Y0168460D01*
X0121762Y0168448D01*
X0121609Y0168440D01*
X0121456Y0168436D01*
X0121302Y0168436D01*
X0121149Y0168440D01*
X0120996Y0168448D01*
X0120843Y0168460D01*
X0120691Y0168476D01*
X0120538Y0168496D01*
X0120387Y0168520D01*
X0120236Y0168548D01*
X0120086Y0168579D01*
X0119937Y0168615D01*
X0119789Y0168654D01*
X0119642Y0168697D01*
X0119496Y0168744D01*
X0119351Y0168795D01*
X0119208Y0168850D01*
X0119066Y0168908D01*
X0118926Y0168970D01*
X0118787Y0169035D01*
X0118650Y0169104D01*
X0118515Y0169177D01*
X0118382Y0169253D01*
X0118251Y0169333D01*
X0118122Y0169415D01*
X0117995Y0169502D01*
X0117870Y0169591D01*
X0117748Y0169684D01*
X0117629Y0169780D01*
X0117511Y0169879D01*
X0117397Y0169980D01*
X0117285Y0170085D01*
X0117176Y0170193D01*
X0117070Y0170304D01*
X0116966Y0170417D01*
X0116866Y0170533D01*
X0116768Y0170651D01*
X0116674Y0170772D01*
X0116583Y0170895D01*
X0116495Y0171021D01*
X0116411Y0171149D01*
X0116329Y0171279D01*
X0116252Y0171411D01*
X0116177Y0171545D01*
X0116106Y0171681D01*
X0116039Y0171819D01*
X0115975Y0171959D01*
X0115915Y0172100D01*
X0115859Y0172242D01*
X0115806Y0172386D01*
X0115757Y0172532D01*
X0115712Y0172678D01*
X0115671Y0172826D01*
X0115634Y0172974D01*
X0115600Y0173124D01*
X0115570Y0173275D01*
X0115545Y0173426D01*
X0115523Y0173577D01*
X0115505Y0173730D01*
X0115491Y0173882D01*
X0115481Y0174035D01*
X0115475Y0174189D01*
X0115473Y0174342D01*
X0009174Y0241271D02*
X0009176Y0241424D01*
X0009182Y0241578D01*
X0009192Y0241731D01*
X0009206Y0241883D01*
X0009224Y0242036D01*
X0009246Y0242187D01*
X0009271Y0242338D01*
X0009301Y0242489D01*
X0009335Y0242639D01*
X0009372Y0242787D01*
X0009413Y0242935D01*
X0009458Y0243081D01*
X0009507Y0243227D01*
X0009560Y0243371D01*
X0009616Y0243513D01*
X0009676Y0243654D01*
X0009740Y0243794D01*
X0009807Y0243932D01*
X0009878Y0244068D01*
X0009953Y0244202D01*
X0010030Y0244334D01*
X0010112Y0244464D01*
X0010196Y0244592D01*
X0010284Y0244718D01*
X0010375Y0244841D01*
X0010469Y0244962D01*
X0010567Y0245080D01*
X0010667Y0245196D01*
X0010771Y0245309D01*
X0010877Y0245420D01*
X0010986Y0245528D01*
X0011098Y0245633D01*
X0011212Y0245734D01*
X0011330Y0245833D01*
X0011449Y0245929D01*
X0011571Y0246022D01*
X0011696Y0246111D01*
X0011823Y0246198D01*
X0011952Y0246280D01*
X0012083Y0246360D01*
X0012216Y0246436D01*
X0012351Y0246509D01*
X0012488Y0246578D01*
X0012627Y0246643D01*
X0012767Y0246705D01*
X0012909Y0246763D01*
X0013052Y0246818D01*
X0013197Y0246869D01*
X0013343Y0246916D01*
X0013490Y0246959D01*
X0013638Y0246998D01*
X0013787Y0247034D01*
X0013937Y0247065D01*
X0014088Y0247093D01*
X0014239Y0247117D01*
X0014392Y0247137D01*
X0014544Y0247153D01*
X0014697Y0247165D01*
X0014850Y0247173D01*
X0015003Y0247177D01*
X0015157Y0247177D01*
X0015310Y0247173D01*
X0015463Y0247165D01*
X0015616Y0247153D01*
X0015768Y0247137D01*
X0015921Y0247117D01*
X0016072Y0247093D01*
X0016223Y0247065D01*
X0016373Y0247034D01*
X0016522Y0246998D01*
X0016670Y0246959D01*
X0016817Y0246916D01*
X0016963Y0246869D01*
X0017108Y0246818D01*
X0017251Y0246763D01*
X0017393Y0246705D01*
X0017533Y0246643D01*
X0017672Y0246578D01*
X0017809Y0246509D01*
X0017944Y0246436D01*
X0018077Y0246360D01*
X0018208Y0246280D01*
X0018337Y0246198D01*
X0018464Y0246111D01*
X0018589Y0246022D01*
X0018711Y0245929D01*
X0018830Y0245833D01*
X0018948Y0245734D01*
X0019062Y0245633D01*
X0019174Y0245528D01*
X0019283Y0245420D01*
X0019389Y0245309D01*
X0019493Y0245196D01*
X0019593Y0245080D01*
X0019691Y0244962D01*
X0019785Y0244841D01*
X0019876Y0244718D01*
X0019964Y0244592D01*
X0020048Y0244464D01*
X0020130Y0244334D01*
X0020207Y0244202D01*
X0020282Y0244068D01*
X0020353Y0243932D01*
X0020420Y0243794D01*
X0020484Y0243654D01*
X0020544Y0243513D01*
X0020600Y0243371D01*
X0020653Y0243227D01*
X0020702Y0243081D01*
X0020747Y0242935D01*
X0020788Y0242787D01*
X0020825Y0242639D01*
X0020859Y0242489D01*
X0020889Y0242338D01*
X0020914Y0242187D01*
X0020936Y0242036D01*
X0020954Y0241883D01*
X0020968Y0241731D01*
X0020978Y0241578D01*
X0020984Y0241424D01*
X0020986Y0241271D01*
X0020984Y0241118D01*
X0020978Y0240964D01*
X0020968Y0240811D01*
X0020954Y0240659D01*
X0020936Y0240506D01*
X0020914Y0240355D01*
X0020889Y0240204D01*
X0020859Y0240053D01*
X0020825Y0239903D01*
X0020788Y0239755D01*
X0020747Y0239607D01*
X0020702Y0239461D01*
X0020653Y0239315D01*
X0020600Y0239171D01*
X0020544Y0239029D01*
X0020484Y0238888D01*
X0020420Y0238748D01*
X0020353Y0238610D01*
X0020282Y0238474D01*
X0020207Y0238340D01*
X0020130Y0238208D01*
X0020048Y0238078D01*
X0019964Y0237950D01*
X0019876Y0237824D01*
X0019785Y0237701D01*
X0019691Y0237580D01*
X0019593Y0237462D01*
X0019493Y0237346D01*
X0019389Y0237233D01*
X0019283Y0237122D01*
X0019174Y0237014D01*
X0019062Y0236909D01*
X0018948Y0236808D01*
X0018830Y0236709D01*
X0018711Y0236613D01*
X0018589Y0236520D01*
X0018464Y0236431D01*
X0018337Y0236344D01*
X0018208Y0236262D01*
X0018077Y0236182D01*
X0017944Y0236106D01*
X0017809Y0236033D01*
X0017672Y0235964D01*
X0017533Y0235899D01*
X0017393Y0235837D01*
X0017251Y0235779D01*
X0017108Y0235724D01*
X0016963Y0235673D01*
X0016817Y0235626D01*
X0016670Y0235583D01*
X0016522Y0235544D01*
X0016373Y0235508D01*
X0016223Y0235477D01*
X0016072Y0235449D01*
X0015921Y0235425D01*
X0015768Y0235405D01*
X0015616Y0235389D01*
X0015463Y0235377D01*
X0015310Y0235369D01*
X0015157Y0235365D01*
X0015003Y0235365D01*
X0014850Y0235369D01*
X0014697Y0235377D01*
X0014544Y0235389D01*
X0014392Y0235405D01*
X0014239Y0235425D01*
X0014088Y0235449D01*
X0013937Y0235477D01*
X0013787Y0235508D01*
X0013638Y0235544D01*
X0013490Y0235583D01*
X0013343Y0235626D01*
X0013197Y0235673D01*
X0013052Y0235724D01*
X0012909Y0235779D01*
X0012767Y0235837D01*
X0012627Y0235899D01*
X0012488Y0235964D01*
X0012351Y0236033D01*
X0012216Y0236106D01*
X0012083Y0236182D01*
X0011952Y0236262D01*
X0011823Y0236344D01*
X0011696Y0236431D01*
X0011571Y0236520D01*
X0011449Y0236613D01*
X0011330Y0236709D01*
X0011212Y0236808D01*
X0011098Y0236909D01*
X0010986Y0237014D01*
X0010877Y0237122D01*
X0010771Y0237233D01*
X0010667Y0237346D01*
X0010567Y0237462D01*
X0010469Y0237580D01*
X0010375Y0237701D01*
X0010284Y0237824D01*
X0010196Y0237950D01*
X0010112Y0238078D01*
X0010030Y0238208D01*
X0009953Y0238340D01*
X0009878Y0238474D01*
X0009807Y0238610D01*
X0009740Y0238748D01*
X0009676Y0238888D01*
X0009616Y0239029D01*
X0009560Y0239171D01*
X0009507Y0239315D01*
X0009458Y0239461D01*
X0009413Y0239607D01*
X0009372Y0239755D01*
X0009335Y0239903D01*
X0009301Y0240053D01*
X0009271Y0240204D01*
X0009246Y0240355D01*
X0009224Y0240506D01*
X0009206Y0240659D01*
X0009192Y0240811D01*
X0009182Y0240964D01*
X0009176Y0241118D01*
X0009174Y0241271D01*
D11*
X0040787Y0196901D02*
X0045987Y0196901D01*
X0045987Y0186901D02*
X0040787Y0186901D01*
X0040787Y0176901D02*
X0045987Y0176901D01*
X0045987Y0166901D02*
X0040787Y0166901D01*
X0040787Y0156901D02*
X0045987Y0156901D01*
X0045987Y0146901D02*
X0040787Y0146901D01*
X0040787Y0136901D02*
X0045987Y0136901D01*
X0045987Y0126901D02*
X0040787Y0126901D01*
X0040787Y0116901D02*
X0045987Y0116901D01*
X0045987Y0106901D02*
X0040787Y0106901D01*
X0070787Y0106901D02*
X0075987Y0106901D01*
X0075987Y0116901D02*
X0070787Y0116901D01*
X0070787Y0126901D02*
X0075987Y0126901D01*
X0075987Y0136901D02*
X0070787Y0136901D01*
X0070787Y0146901D02*
X0075987Y0146901D01*
X0075987Y0156901D02*
X0070787Y0156901D01*
X0070787Y0166901D02*
X0075987Y0166901D01*
X0075987Y0176901D02*
X0070787Y0176901D01*
X0070787Y0186901D02*
X0075987Y0186901D01*
X0075987Y0196901D02*
X0070787Y0196901D01*
D12*
X0103387Y0185287D03*
X0103387Y0175287D03*
X0103387Y0165287D03*
X0103387Y0155287D03*
X0103387Y0145287D03*
X0103387Y0135287D03*
X0103387Y0125287D03*
X0103387Y0115287D03*
X0103387Y0105287D03*
X0103387Y0095287D03*
X0103387Y0085287D03*
X0103387Y0075287D03*
X0103387Y0065287D03*
X0103387Y0055287D03*
X0103387Y0045287D03*
X0013387Y0045287D03*
X0013387Y0055287D03*
X0013387Y0065287D03*
X0013387Y0075287D03*
X0013387Y0085287D03*
X0013387Y0095287D03*
X0013387Y0105287D03*
X0013387Y0115287D03*
X0013387Y0125287D03*
X0013387Y0135287D03*
X0013387Y0145287D03*
X0013387Y0155287D03*
X0013387Y0165287D03*
X0013387Y0175287D03*
X0013387Y0185287D03*
D13*
X0036733Y0024735D03*
X0080040Y0024735D03*
D14*
X0068229Y0064106D02*
X0068229Y0075917D01*
X0048544Y0075917D02*
X0048544Y0064106D01*
D15*
X0048387Y0221586D03*
X0028387Y0221586D03*
X0068387Y0221586D03*
X0088387Y0221586D03*
D16*
X0116416Y0088717D03*
X0116416Y0063117D03*
X0116416Y0049346D03*
X0116416Y0023746D03*
X0134216Y0023746D03*
X0134216Y0049346D03*
X0134216Y0063117D03*
X0134216Y0088717D03*
D17*
X0125316Y0193720D03*
X0132316Y0233397D03*
D18*
X0118316Y0233397D03*
X0125316Y0207720D03*
D19*
X0106812Y0213043D03*
X0106812Y0223043D03*
X0114292Y0137609D03*
X0114292Y0127609D03*
D20*
X0121379Y0120287D03*
X0121379Y0110287D03*
X0135158Y0105287D03*
X0135158Y0125287D03*
X0135158Y0144657D03*
X0135158Y0164657D03*
X0121379Y0159657D03*
X0121379Y0149657D03*
D21*
X0125067Y0153322D02*
X0139164Y0153322D01*
X0139164Y0152723D02*
X0131900Y0152723D01*
X0132141Y0152624D02*
X0130854Y0153157D01*
X0125233Y0153157D01*
X0123733Y0154657D01*
X0126579Y0157503D01*
X0126579Y0161811D01*
X0123533Y0164857D01*
X0119225Y0164857D01*
X0116179Y0161811D01*
X0116179Y0159731D01*
X0107003Y0159731D01*
X0106615Y0160119D01*
X0106210Y0160287D01*
X0106615Y0160454D01*
X0108219Y0162058D01*
X0109087Y0164153D01*
X0109087Y0166420D01*
X0108219Y0168515D01*
X0106615Y0170119D01*
X0106210Y0170287D01*
X0106615Y0170454D01*
X0108219Y0172058D01*
X0109087Y0174153D01*
X0109087Y0176420D01*
X0108219Y0178515D01*
X0106615Y0180119D01*
X0106210Y0180287D01*
X0106615Y0180454D01*
X0108219Y0182058D01*
X0109087Y0184153D01*
X0109087Y0186420D01*
X0108219Y0188515D01*
X0106615Y0190119D01*
X0104520Y0190987D01*
X0102253Y0190987D01*
X0100158Y0190119D01*
X0098554Y0188515D01*
X0097687Y0186420D01*
X0097687Y0184153D01*
X0098554Y0182058D01*
X0100158Y0180454D01*
X0100563Y0180287D01*
X0100158Y0180119D01*
X0098554Y0178515D01*
X0097687Y0176420D01*
X0097687Y0174153D01*
X0098554Y0172058D01*
X0100158Y0170454D01*
X0100563Y0170287D01*
X0100158Y0170119D01*
X0098554Y0168515D01*
X0097687Y0166420D01*
X0097687Y0164153D01*
X0098554Y0162058D01*
X0100158Y0160454D01*
X0100563Y0160287D01*
X0100158Y0160119D01*
X0098554Y0158515D01*
X0097687Y0156420D01*
X0097687Y0154153D01*
X0098554Y0152058D01*
X0100158Y0150454D01*
X0100563Y0150287D01*
X0100158Y0150119D01*
X0098554Y0148515D01*
X0097687Y0146420D01*
X0097687Y0144153D01*
X0098554Y0142058D01*
X0100158Y0140454D01*
X0100563Y0140287D01*
X0100158Y0140119D01*
X0098554Y0138515D01*
X0097687Y0136420D01*
X0097687Y0134153D01*
X0098554Y0132058D01*
X0100158Y0130454D01*
X0102253Y0129587D01*
X0104520Y0129587D01*
X0106615Y0130454D01*
X0107948Y0131787D01*
X0112665Y0131787D01*
X0113952Y0132319D01*
X0114742Y0133109D01*
X0116156Y0133109D01*
X0118792Y0135745D01*
X0118792Y0137727D01*
X0119454Y0137065D01*
X0119454Y0125487D01*
X0119225Y0125487D01*
X0116179Y0122441D01*
X0116179Y0118133D01*
X0119025Y0115287D01*
X0116179Y0112441D01*
X0116179Y0108133D01*
X0119225Y0105087D01*
X0121629Y0105087D01*
X0123412Y0103304D01*
X0124396Y0102319D01*
X0125683Y0101787D01*
X0131304Y0101787D01*
X0133004Y0100087D01*
X0137312Y0100087D01*
X0139164Y0101938D01*
X0139164Y0091404D01*
X0138963Y0091889D01*
X0137388Y0093464D01*
X0135330Y0094317D01*
X0133565Y0094317D01*
X0127936Y0099946D01*
X0126951Y0100931D01*
X0125665Y0101464D01*
X0117317Y0101464D01*
X0110527Y0108254D01*
X0109240Y0108787D01*
X0107948Y0108787D01*
X0106615Y0110119D01*
X0106210Y0110287D01*
X0106615Y0110454D01*
X0108219Y0112058D01*
X0109087Y0114153D01*
X0109087Y0116420D01*
X0108219Y0118515D01*
X0106615Y0120119D01*
X0104520Y0120987D01*
X0102253Y0120987D01*
X0100158Y0120119D01*
X0098826Y0118787D01*
X0096451Y0118787D01*
X0092989Y0122248D01*
X0092989Y0184487D01*
X0092456Y0185773D01*
X0091472Y0186758D01*
X0088361Y0189868D01*
X0087075Y0190401D01*
X0078851Y0190401D01*
X0078536Y0190716D01*
X0076882Y0191401D01*
X0069891Y0191401D01*
X0068238Y0190716D01*
X0066972Y0189450D01*
X0066287Y0187796D01*
X0066287Y0186006D01*
X0066972Y0184352D01*
X0068238Y0183086D01*
X0069891Y0182401D01*
X0076882Y0182401D01*
X0078536Y0183086D01*
X0078851Y0183401D01*
X0084929Y0183401D01*
X0085989Y0182341D01*
X0085989Y0176886D01*
X0083007Y0179868D01*
X0081721Y0180401D01*
X0078851Y0180401D01*
X0078536Y0180716D01*
X0076882Y0181401D01*
X0069891Y0181401D01*
X0068238Y0180716D01*
X0066972Y0179450D01*
X0066287Y0177796D01*
X0066287Y0176006D01*
X0066972Y0174352D01*
X0068238Y0173086D01*
X0069891Y0172401D01*
X0076882Y0172401D01*
X0078536Y0173086D01*
X0078851Y0173401D01*
X0079575Y0173401D01*
X0081658Y0171317D01*
X0081658Y0112819D01*
X0082191Y0111532D01*
X0083176Y0110548D01*
X0097687Y0096037D01*
X0097687Y0094153D01*
X0098554Y0092058D01*
X0100158Y0090454D01*
X0100563Y0090287D01*
X0100158Y0090119D01*
X0098554Y0088515D01*
X0097687Y0086420D01*
X0097687Y0084153D01*
X0098554Y0082058D01*
X0100158Y0080454D01*
X0100563Y0080287D01*
X0100158Y0080119D01*
X0098554Y0078515D01*
X0097687Y0076420D01*
X0097687Y0074153D01*
X0098554Y0072058D01*
X0100158Y0070454D01*
X0100563Y0070287D01*
X0100158Y0070119D01*
X0098554Y0068515D01*
X0097687Y0066420D01*
X0097687Y0064153D01*
X0098554Y0062058D01*
X0100158Y0060454D01*
X0102253Y0059587D01*
X0104520Y0059587D01*
X0106615Y0060454D01*
X0108219Y0062058D01*
X0109087Y0064153D01*
X0109087Y0066420D01*
X0108219Y0068515D01*
X0106615Y0070119D01*
X0106210Y0070287D01*
X0106615Y0070454D01*
X0108219Y0072058D01*
X0109087Y0074153D01*
X0109087Y0076420D01*
X0108219Y0078515D01*
X0106615Y0080119D01*
X0106210Y0080287D01*
X0106615Y0080454D01*
X0106694Y0080533D01*
X0119205Y0068023D01*
X0117530Y0068717D01*
X0115302Y0068717D01*
X0113244Y0067864D01*
X0111668Y0066289D01*
X0110816Y0064230D01*
X0110816Y0062003D01*
X0111668Y0059944D01*
X0113244Y0058369D01*
X0115302Y0057517D01*
X0117530Y0057517D01*
X0119588Y0058369D01*
X0121163Y0059944D01*
X0121816Y0061520D01*
X0121816Y0054354D01*
X0122349Y0053068D01*
X0128053Y0047364D01*
X0129037Y0046379D01*
X0129455Y0046206D01*
X0129468Y0046174D01*
X0131044Y0044599D01*
X0133102Y0043746D01*
X0135330Y0043746D01*
X0137388Y0044599D01*
X0138963Y0046174D01*
X0139164Y0046659D01*
X0139164Y0026434D01*
X0138963Y0026919D01*
X0137388Y0028494D01*
X0135330Y0029346D01*
X0133102Y0029346D01*
X0131044Y0028494D01*
X0129468Y0026919D01*
X0128616Y0024860D01*
X0128616Y0022633D01*
X0129468Y0020574D01*
X0131044Y0018999D01*
X0131617Y0018761D01*
X0119014Y0018761D01*
X0119588Y0018999D01*
X0121163Y0020574D01*
X0122016Y0022633D01*
X0122016Y0024860D01*
X0121163Y0026919D01*
X0119588Y0028494D01*
X0117530Y0029346D01*
X0115302Y0029346D01*
X0113244Y0028494D01*
X0111668Y0026919D01*
X0110816Y0024860D01*
X0110816Y0022633D01*
X0111668Y0020574D01*
X0113244Y0018999D01*
X0113817Y0018761D01*
X0007205Y0018761D01*
X0006808Y0018801D01*
X0006074Y0019105D01*
X0005512Y0019667D01*
X0005208Y0020401D01*
X0005168Y0020798D01*
X0005168Y0249145D01*
X0005208Y0249542D01*
X0005512Y0250277D01*
X0006074Y0250839D01*
X0006808Y0251143D01*
X0007205Y0251182D01*
X0137127Y0251182D01*
X0137524Y0251143D01*
X0138258Y0250839D01*
X0138820Y0250277D01*
X0139125Y0249542D01*
X0139164Y0249145D01*
X0139164Y0148005D01*
X0137312Y0149857D01*
X0134908Y0149857D01*
X0132141Y0152624D01*
X0132640Y0152125D02*
X0139164Y0152125D01*
X0139164Y0151526D02*
X0133238Y0151526D01*
X0133837Y0150928D02*
X0139164Y0150928D01*
X0139164Y0150329D02*
X0134435Y0150329D01*
X0137438Y0149731D02*
X0139164Y0149731D01*
X0139164Y0149132D02*
X0138036Y0149132D01*
X0138635Y0148534D02*
X0139164Y0148534D01*
X0139164Y0153921D02*
X0124469Y0153921D01*
X0123870Y0154519D02*
X0139164Y0154519D01*
X0139164Y0155118D02*
X0124193Y0155118D01*
X0124792Y0155716D02*
X0139164Y0155716D01*
X0139164Y0156315D02*
X0125390Y0156315D01*
X0125989Y0156913D02*
X0139164Y0156913D01*
X0139164Y0157512D02*
X0126579Y0157512D01*
X0126579Y0158110D02*
X0139164Y0158110D01*
X0139164Y0158709D02*
X0126579Y0158709D01*
X0126579Y0159307D02*
X0139164Y0159307D01*
X0139164Y0159906D02*
X0126579Y0159906D01*
X0126579Y0160504D02*
X0139164Y0160504D01*
X0139164Y0161103D02*
X0126579Y0161103D01*
X0126579Y0161701D02*
X0139164Y0161701D01*
X0139164Y0162300D02*
X0126090Y0162300D01*
X0125491Y0162898D02*
X0139164Y0162898D01*
X0139164Y0163497D02*
X0124893Y0163497D01*
X0124294Y0164095D02*
X0139164Y0164095D01*
X0139164Y0164694D02*
X0123696Y0164694D01*
X0122931Y0166536D02*
X0125800Y0167725D01*
X0127996Y0169920D01*
X0129184Y0172789D01*
X0129184Y0175894D01*
X0127996Y0178763D01*
X0125800Y0180959D01*
X0122931Y0182147D01*
X0119826Y0182147D01*
X0116957Y0180959D01*
X0114762Y0178763D01*
X0113573Y0175894D01*
X0113573Y0172789D01*
X0114762Y0169920D01*
X0116957Y0167725D01*
X0119826Y0166536D01*
X0122931Y0166536D01*
X0124263Y0167088D02*
X0139164Y0167088D01*
X0139164Y0167686D02*
X0125708Y0167686D01*
X0126360Y0168285D02*
X0139164Y0168285D01*
X0139164Y0168883D02*
X0126959Y0168883D01*
X0127557Y0169482D02*
X0139164Y0169482D01*
X0139164Y0170080D02*
X0128062Y0170080D01*
X0128310Y0170679D02*
X0139164Y0170679D01*
X0139164Y0171277D02*
X0128558Y0171277D01*
X0128806Y0171876D02*
X0139164Y0171876D01*
X0139164Y0172474D02*
X0129054Y0172474D01*
X0129184Y0173073D02*
X0139164Y0173073D01*
X0139164Y0173671D02*
X0129184Y0173671D01*
X0129184Y0174270D02*
X0139164Y0174270D01*
X0139164Y0174868D02*
X0129184Y0174868D01*
X0129184Y0175467D02*
X0139164Y0175467D01*
X0139164Y0176065D02*
X0129113Y0176065D01*
X0128865Y0176664D02*
X0139164Y0176664D01*
X0139164Y0177262D02*
X0128618Y0177262D01*
X0128370Y0177861D02*
X0139164Y0177861D01*
X0139164Y0178459D02*
X0128122Y0178459D01*
X0127701Y0179058D02*
X0139164Y0179058D01*
X0139164Y0179656D02*
X0127103Y0179656D01*
X0126504Y0180255D02*
X0139164Y0180255D01*
X0139164Y0180854D02*
X0125906Y0180854D01*
X0124610Y0181452D02*
X0139164Y0181452D01*
X0139164Y0182051D02*
X0123165Y0182051D01*
X0119593Y0182051D02*
X0108212Y0182051D01*
X0108464Y0182649D02*
X0139164Y0182649D01*
X0139164Y0183248D02*
X0108712Y0183248D01*
X0108960Y0183846D02*
X0139164Y0183846D01*
X0139164Y0184445D02*
X0109087Y0184445D01*
X0109087Y0185043D02*
X0139164Y0185043D01*
X0139164Y0185642D02*
X0109087Y0185642D01*
X0109087Y0186240D02*
X0139164Y0186240D01*
X0139164Y0186839D02*
X0108913Y0186839D01*
X0108665Y0187437D02*
X0139164Y0187437D01*
X0139164Y0188036D02*
X0108418Y0188036D01*
X0108100Y0188634D02*
X0139164Y0188634D01*
X0139164Y0189233D02*
X0107502Y0189233D01*
X0106903Y0189831D02*
X0139164Y0189831D01*
X0139164Y0190430D02*
X0105865Y0190430D01*
X0100908Y0190430D02*
X0078822Y0190430D01*
X0077781Y0191028D02*
X0139164Y0191028D01*
X0139164Y0191627D02*
X0065287Y0191627D01*
X0065287Y0192225D02*
X0139164Y0192225D01*
X0139164Y0192824D02*
X0065287Y0192824D01*
X0065287Y0193422D02*
X0139164Y0193422D01*
X0139164Y0194021D02*
X0065287Y0194021D01*
X0065287Y0194619D02*
X0139164Y0194619D01*
X0139164Y0195218D02*
X0065287Y0195218D01*
X0065287Y0195816D02*
X0139164Y0195816D01*
X0139164Y0196415D02*
X0065287Y0196415D01*
X0065287Y0197013D02*
X0139164Y0197013D01*
X0139164Y0197612D02*
X0065287Y0197612D01*
X0065287Y0198210D02*
X0139164Y0198210D01*
X0139164Y0198809D02*
X0065287Y0198809D01*
X0065287Y0199407D02*
X0139164Y0199407D01*
X0139164Y0200006D02*
X0065462Y0200006D01*
X0065287Y0199830D02*
X0066363Y0200906D01*
X0082987Y0200906D01*
X0085523Y0201957D01*
X0093107Y0209541D01*
X0094052Y0210455D01*
X0094076Y0210509D01*
X0094118Y0210551D01*
X0094622Y0211767D01*
X0095145Y0212973D01*
X0095146Y0213033D01*
X0095168Y0213087D01*
X0095168Y0214403D01*
X0095241Y0218761D01*
X0098227Y0221869D01*
X0102903Y0217193D01*
X0105439Y0216143D01*
X0108184Y0216143D01*
X0110720Y0217193D01*
X0111989Y0218462D01*
X0118416Y0212035D01*
X0118416Y0206347D01*
X0119466Y0203811D01*
X0121407Y0201870D01*
X0123943Y0200820D01*
X0126688Y0200820D01*
X0129224Y0201870D01*
X0131165Y0203811D01*
X0132216Y0206347D01*
X0132216Y0216265D01*
X0131165Y0218801D01*
X0122322Y0227645D01*
X0124165Y0229488D01*
X0125216Y0232024D01*
X0125216Y0234769D01*
X0124165Y0237305D01*
X0122224Y0239246D01*
X0119688Y0240297D01*
X0098431Y0240297D01*
X0095895Y0239246D01*
X0094084Y0237435D01*
X0094034Y0237385D01*
X0093968Y0237356D01*
X0093065Y0236416D01*
X0092143Y0235494D01*
X0092116Y0235428D01*
X0083498Y0226457D01*
X0082603Y0225591D01*
X0082551Y0225471D01*
X0082460Y0225376D01*
X0082006Y0224215D01*
X0081510Y0223072D01*
X0081508Y0222942D01*
X0081460Y0222820D01*
X0081485Y0221574D01*
X0081416Y0217365D01*
X0078757Y0214706D01*
X0062132Y0214706D01*
X0059596Y0213656D01*
X0054478Y0208538D01*
X0052537Y0206597D01*
X0051487Y0204061D01*
X0051487Y0098953D01*
X0052537Y0096417D01*
X0054478Y0094476D01*
X0061224Y0087731D01*
X0061260Y0079490D01*
X0060424Y0077469D01*
X0060424Y0062553D01*
X0061612Y0059684D01*
X0063808Y0057488D01*
X0063829Y0057479D01*
X0063829Y0054511D01*
X0059005Y0049687D01*
X0017048Y0049687D01*
X0016615Y0050119D01*
X0014520Y0050987D01*
X0012253Y0050987D01*
X0010158Y0050119D01*
X0008554Y0048515D01*
X0007687Y0046420D01*
X0007687Y0044153D01*
X0008554Y0042058D01*
X0010158Y0040454D01*
X0012253Y0039587D01*
X0014520Y0039587D01*
X0016615Y0040454D01*
X0017048Y0040887D01*
X0061703Y0040887D01*
X0063320Y0041556D01*
X0071959Y0050196D01*
X0072629Y0051813D01*
X0072629Y0057479D01*
X0072651Y0057488D01*
X0074846Y0059684D01*
X0076035Y0062553D01*
X0076035Y0077469D01*
X0075059Y0079824D01*
X0075011Y0090617D01*
X0075011Y0091974D01*
X0075005Y0091989D01*
X0075005Y0092005D01*
X0074480Y0093256D01*
X0073961Y0094510D01*
X0073949Y0094521D01*
X0073943Y0094536D01*
X0072979Y0095491D01*
X0065287Y0103184D01*
X0065287Y0199830D01*
X0066061Y0200604D02*
X0139164Y0200604D01*
X0139164Y0201203D02*
X0127613Y0201203D01*
X0129058Y0201801D02*
X0139164Y0201801D01*
X0139164Y0202400D02*
X0129754Y0202400D01*
X0130353Y0202998D02*
X0139164Y0202998D01*
X0139164Y0203597D02*
X0130951Y0203597D01*
X0131324Y0204195D02*
X0139164Y0204195D01*
X0139164Y0204794D02*
X0131572Y0204794D01*
X0131820Y0205392D02*
X0139164Y0205392D01*
X0139164Y0205991D02*
X0132068Y0205991D01*
X0132216Y0206590D02*
X0139164Y0206590D01*
X0139164Y0207188D02*
X0132216Y0207188D01*
X0132216Y0207787D02*
X0139164Y0207787D01*
X0139164Y0208385D02*
X0132216Y0208385D01*
X0132216Y0208984D02*
X0139164Y0208984D01*
X0139164Y0209582D02*
X0132216Y0209582D01*
X0132216Y0210181D02*
X0139164Y0210181D01*
X0139164Y0210779D02*
X0132216Y0210779D01*
X0132216Y0211378D02*
X0139164Y0211378D01*
X0139164Y0211976D02*
X0132216Y0211976D01*
X0132216Y0212575D02*
X0139164Y0212575D01*
X0139164Y0213173D02*
X0132216Y0213173D01*
X0132216Y0213772D02*
X0139164Y0213772D01*
X0139164Y0214370D02*
X0132216Y0214370D01*
X0132216Y0214969D02*
X0139164Y0214969D01*
X0139164Y0215567D02*
X0132216Y0215567D01*
X0132216Y0216166D02*
X0139164Y0216166D01*
X0139164Y0216764D02*
X0132009Y0216764D01*
X0131761Y0217363D02*
X0139164Y0217363D01*
X0139164Y0217961D02*
X0131513Y0217961D01*
X0131265Y0218560D02*
X0139164Y0218560D01*
X0139164Y0219158D02*
X0130808Y0219158D01*
X0130210Y0219757D02*
X0139164Y0219757D01*
X0139164Y0220355D02*
X0129611Y0220355D01*
X0129013Y0220954D02*
X0139164Y0220954D01*
X0139164Y0221552D02*
X0128414Y0221552D01*
X0127816Y0222151D02*
X0139164Y0222151D01*
X0139164Y0222749D02*
X0127217Y0222749D01*
X0126619Y0223348D02*
X0139164Y0223348D01*
X0139164Y0223946D02*
X0126020Y0223946D01*
X0125422Y0224545D02*
X0139164Y0224545D01*
X0139164Y0225143D02*
X0124823Y0225143D01*
X0124225Y0225742D02*
X0139164Y0225742D01*
X0139164Y0226340D02*
X0123626Y0226340D01*
X0123028Y0226939D02*
X0139164Y0226939D01*
X0139164Y0227537D02*
X0122429Y0227537D01*
X0122813Y0228136D02*
X0139164Y0228136D01*
X0139164Y0228734D02*
X0123411Y0228734D01*
X0124010Y0229333D02*
X0139164Y0229333D01*
X0139164Y0229931D02*
X0124349Y0229931D01*
X0124597Y0230530D02*
X0139164Y0230530D01*
X0139164Y0231128D02*
X0124845Y0231128D01*
X0125093Y0231727D02*
X0139164Y0231727D01*
X0139164Y0232325D02*
X0125216Y0232325D01*
X0125216Y0232924D02*
X0139164Y0232924D01*
X0139164Y0233523D02*
X0125216Y0233523D01*
X0125216Y0234121D02*
X0139164Y0234121D01*
X0139164Y0234720D02*
X0125216Y0234720D01*
X0124988Y0235318D02*
X0139164Y0235318D01*
X0139164Y0235917D02*
X0124741Y0235917D01*
X0124493Y0236515D02*
X0139164Y0236515D01*
X0139164Y0237114D02*
X0124245Y0237114D01*
X0123759Y0237712D02*
X0139164Y0237712D01*
X0139164Y0238311D02*
X0123160Y0238311D01*
X0122562Y0238909D02*
X0139164Y0238909D01*
X0139164Y0239508D02*
X0121594Y0239508D01*
X0120149Y0240106D02*
X0139164Y0240106D01*
X0139164Y0240705D02*
X0022885Y0240705D01*
X0022885Y0241303D02*
X0139164Y0241303D01*
X0139164Y0241902D02*
X0022885Y0241902D01*
X0022885Y0242500D02*
X0139164Y0242500D01*
X0139164Y0243099D02*
X0022771Y0243099D01*
X0022885Y0242823D02*
X0021697Y0245692D01*
X0019501Y0247888D01*
X0016632Y0249076D01*
X0013527Y0249076D01*
X0010658Y0247888D01*
X0008462Y0245692D01*
X0007274Y0242823D01*
X0007274Y0239718D01*
X0008462Y0236849D01*
X0010658Y0234654D01*
X0013527Y0233465D01*
X0016632Y0233465D01*
X0019501Y0234654D01*
X0021697Y0236849D01*
X0022885Y0239718D01*
X0022885Y0242823D01*
X0022523Y0243697D02*
X0139164Y0243697D01*
X0139164Y0244296D02*
X0022275Y0244296D01*
X0022027Y0244894D02*
X0139164Y0244894D01*
X0139164Y0245493D02*
X0021779Y0245493D01*
X0021298Y0246091D02*
X0139164Y0246091D01*
X0139164Y0246690D02*
X0020699Y0246690D01*
X0020101Y0247288D02*
X0139164Y0247288D01*
X0139164Y0247887D02*
X0019502Y0247887D01*
X0018059Y0248485D02*
X0139164Y0248485D01*
X0139164Y0249084D02*
X0005168Y0249084D01*
X0005168Y0248485D02*
X0012100Y0248485D01*
X0010657Y0247887D02*
X0005168Y0247887D01*
X0005168Y0247288D02*
X0010058Y0247288D01*
X0009460Y0246690D02*
X0005168Y0246690D01*
X0005168Y0246091D02*
X0008861Y0246091D01*
X0008380Y0245493D02*
X0005168Y0245493D01*
X0005168Y0244894D02*
X0008132Y0244894D01*
X0007884Y0244296D02*
X0005168Y0244296D01*
X0005168Y0243697D02*
X0007636Y0243697D01*
X0007388Y0243099D02*
X0005168Y0243099D01*
X0005168Y0242500D02*
X0007274Y0242500D01*
X0007274Y0241902D02*
X0005168Y0241902D01*
X0005168Y0241303D02*
X0007274Y0241303D01*
X0007274Y0240705D02*
X0005168Y0240705D01*
X0005168Y0240106D02*
X0007274Y0240106D01*
X0007361Y0239508D02*
X0005168Y0239508D01*
X0005168Y0238909D02*
X0007609Y0238909D01*
X0007857Y0238311D02*
X0005168Y0238311D01*
X0005168Y0237712D02*
X0008105Y0237712D01*
X0008353Y0237114D02*
X0005168Y0237114D01*
X0005168Y0236515D02*
X0008797Y0236515D01*
X0009395Y0235917D02*
X0005168Y0235917D01*
X0005168Y0235318D02*
X0009994Y0235318D01*
X0010592Y0234720D02*
X0005168Y0234720D01*
X0005168Y0234121D02*
X0011944Y0234121D01*
X0013389Y0233523D02*
X0005168Y0233523D01*
X0005168Y0232924D02*
X0038619Y0232924D01*
X0038939Y0233244D02*
X0036183Y0230488D01*
X0035589Y0229054D01*
X0035589Y0216902D01*
X0029490Y0210803D01*
X0028896Y0209369D01*
X0028896Y0190495D01*
X0029490Y0189062D01*
X0030587Y0187965D01*
X0034957Y0183595D01*
X0036390Y0183001D01*
X0038443Y0183001D01*
X0039891Y0182401D01*
X0046882Y0182401D01*
X0048536Y0183086D01*
X0049802Y0184352D01*
X0050487Y0186006D01*
X0050487Y0187796D01*
X0049802Y0189450D01*
X0048536Y0190716D01*
X0046882Y0191401D01*
X0039891Y0191401D01*
X0038682Y0190900D01*
X0036696Y0192886D01*
X0036696Y0195017D01*
X0036972Y0194352D01*
X0038238Y0193086D01*
X0039891Y0192401D01*
X0046882Y0192401D01*
X0048536Y0193086D01*
X0049802Y0194352D01*
X0050487Y0196006D01*
X0050487Y0197796D01*
X0049802Y0199450D01*
X0048536Y0200716D01*
X0046882Y0201401D01*
X0039891Y0201401D01*
X0038238Y0200716D01*
X0036972Y0199450D01*
X0036696Y0198784D01*
X0036696Y0206978D01*
X0042795Y0213077D01*
X0043389Y0214511D01*
X0043389Y0218656D01*
X0043522Y0218335D01*
X0045136Y0216721D01*
X0047245Y0215847D01*
X0049528Y0215847D01*
X0051637Y0216721D01*
X0053252Y0218335D01*
X0054125Y0220444D01*
X0054125Y0222727D01*
X0053252Y0224836D01*
X0051637Y0226451D01*
X0049986Y0227135D01*
X0057461Y0227135D01*
X0062648Y0221859D01*
X0062648Y0220444D01*
X0063522Y0218335D01*
X0065136Y0216721D01*
X0067245Y0215847D01*
X0069528Y0215847D01*
X0071637Y0216721D01*
X0073252Y0218335D01*
X0074125Y0220444D01*
X0074125Y0222727D01*
X0073252Y0224836D01*
X0071637Y0226451D01*
X0069528Y0227324D01*
X0068213Y0227324D01*
X0062408Y0233228D01*
X0062402Y0233244D01*
X0061865Y0233780D01*
X0061332Y0234322D01*
X0061316Y0234329D01*
X0061304Y0234341D01*
X0060603Y0234631D01*
X0059904Y0234928D01*
X0059887Y0234928D01*
X0059871Y0234935D01*
X0059112Y0234935D01*
X0058352Y0234941D01*
X0058337Y0234935D01*
X0041469Y0234935D01*
X0040036Y0234341D01*
X0038939Y0233244D01*
X0038939Y0233244D01*
X0039217Y0233523D02*
X0016770Y0233523D01*
X0018215Y0234121D02*
X0039816Y0234121D01*
X0040950Y0234720D02*
X0019567Y0234720D01*
X0020165Y0235318D02*
X0092010Y0235318D01*
X0092566Y0235917D02*
X0020764Y0235917D01*
X0021362Y0236515D02*
X0093160Y0236515D01*
X0093735Y0237114D02*
X0021806Y0237114D01*
X0022054Y0237712D02*
X0094361Y0237712D01*
X0094960Y0238311D02*
X0022302Y0238311D01*
X0022550Y0238909D02*
X0095558Y0238909D01*
X0096526Y0239508D02*
X0022798Y0239508D01*
X0022885Y0240106D02*
X0097971Y0240106D01*
X0091435Y0234720D02*
X0060395Y0234720D01*
X0061530Y0234121D02*
X0090860Y0234121D01*
X0090285Y0233523D02*
X0062123Y0233523D01*
X0062707Y0232924D02*
X0089711Y0232924D01*
X0089136Y0232325D02*
X0063296Y0232325D01*
X0063884Y0231727D02*
X0088561Y0231727D01*
X0087986Y0231128D02*
X0064473Y0231128D01*
X0065061Y0230530D02*
X0087411Y0230530D01*
X0086836Y0229931D02*
X0065650Y0229931D01*
X0066238Y0229333D02*
X0086261Y0229333D01*
X0085686Y0228734D02*
X0066827Y0228734D01*
X0067415Y0228136D02*
X0085111Y0228136D01*
X0084536Y0227537D02*
X0068004Y0227537D01*
X0070459Y0226939D02*
X0083961Y0226939D01*
X0083378Y0226340D02*
X0071748Y0226340D01*
X0072346Y0225742D02*
X0082759Y0225742D01*
X0082369Y0225143D02*
X0072945Y0225143D01*
X0073372Y0224545D02*
X0082135Y0224545D01*
X0081889Y0223946D02*
X0073620Y0223946D01*
X0073868Y0223348D02*
X0081630Y0223348D01*
X0081462Y0222749D02*
X0074116Y0222749D01*
X0074125Y0222151D02*
X0081474Y0222151D01*
X0081485Y0221552D02*
X0074125Y0221552D01*
X0074125Y0220954D02*
X0081475Y0220954D01*
X0081465Y0220355D02*
X0074088Y0220355D01*
X0073840Y0219757D02*
X0081455Y0219757D01*
X0081445Y0219158D02*
X0073592Y0219158D01*
X0073345Y0218560D02*
X0081436Y0218560D01*
X0081426Y0217961D02*
X0072878Y0217961D01*
X0072279Y0217363D02*
X0081413Y0217363D01*
X0080815Y0216764D02*
X0071681Y0216764D01*
X0070297Y0216166D02*
X0080216Y0216166D01*
X0079618Y0215567D02*
X0043389Y0215567D01*
X0043389Y0214969D02*
X0079019Y0214969D01*
X0087164Y0203597D02*
X0119680Y0203597D01*
X0119307Y0204195D02*
X0087762Y0204195D01*
X0088361Y0204794D02*
X0119059Y0204794D01*
X0118811Y0205392D02*
X0088959Y0205392D01*
X0089558Y0205991D02*
X0118563Y0205991D01*
X0118416Y0206590D02*
X0090156Y0206590D01*
X0090755Y0207188D02*
X0118416Y0207188D01*
X0118416Y0207787D02*
X0091353Y0207787D01*
X0091952Y0208385D02*
X0118416Y0208385D01*
X0118416Y0208984D02*
X0092550Y0208984D01*
X0093150Y0209582D02*
X0118416Y0209582D01*
X0118416Y0210181D02*
X0093769Y0210181D01*
X0094212Y0210779D02*
X0118416Y0210779D01*
X0118416Y0211378D02*
X0094460Y0211378D01*
X0094712Y0211976D02*
X0118416Y0211976D01*
X0117876Y0212575D02*
X0094972Y0212575D01*
X0095168Y0213173D02*
X0117277Y0213173D01*
X0116679Y0213772D02*
X0095168Y0213772D01*
X0095168Y0214370D02*
X0116080Y0214370D01*
X0115482Y0214969D02*
X0095178Y0214969D01*
X0095188Y0215567D02*
X0114883Y0215567D01*
X0114285Y0216166D02*
X0108240Y0216166D01*
X0109685Y0216764D02*
X0113686Y0216764D01*
X0113088Y0217363D02*
X0110890Y0217363D01*
X0111489Y0217961D02*
X0112489Y0217961D01*
X0105383Y0216166D02*
X0095198Y0216166D01*
X0095208Y0216764D02*
X0103938Y0216764D01*
X0102734Y0217363D02*
X0095218Y0217363D01*
X0095227Y0217961D02*
X0102135Y0217961D01*
X0101537Y0218560D02*
X0095237Y0218560D01*
X0095623Y0219158D02*
X0100938Y0219158D01*
X0100339Y0219757D02*
X0096197Y0219757D01*
X0096772Y0220355D02*
X0099741Y0220355D01*
X0099142Y0220954D02*
X0097347Y0220954D01*
X0097922Y0221552D02*
X0098544Y0221552D01*
X0086565Y0202998D02*
X0120279Y0202998D01*
X0120877Y0202400D02*
X0085967Y0202400D01*
X0085148Y0201801D02*
X0121573Y0201801D01*
X0123018Y0201203D02*
X0083704Y0201203D01*
X0088398Y0189831D02*
X0099870Y0189831D01*
X0099272Y0189233D02*
X0088997Y0189233D01*
X0089595Y0188634D02*
X0098673Y0188634D01*
X0098356Y0188036D02*
X0090194Y0188036D01*
X0090792Y0187437D02*
X0098108Y0187437D01*
X0097860Y0186839D02*
X0091391Y0186839D01*
X0091989Y0186240D02*
X0097687Y0186240D01*
X0097687Y0185642D02*
X0092511Y0185642D01*
X0092759Y0185043D02*
X0097687Y0185043D01*
X0097687Y0184445D02*
X0092989Y0184445D01*
X0092989Y0183846D02*
X0097814Y0183846D01*
X0098062Y0183248D02*
X0092989Y0183248D01*
X0092989Y0182649D02*
X0098309Y0182649D01*
X0098562Y0182051D02*
X0092989Y0182051D01*
X0092989Y0181452D02*
X0099160Y0181452D01*
X0099759Y0180854D02*
X0092989Y0180854D01*
X0092989Y0180255D02*
X0100487Y0180255D01*
X0099695Y0179656D02*
X0092989Y0179656D01*
X0092989Y0179058D02*
X0099097Y0179058D01*
X0098531Y0178459D02*
X0092989Y0178459D01*
X0092989Y0177861D02*
X0098283Y0177861D01*
X0098035Y0177262D02*
X0092989Y0177262D01*
X0092989Y0176664D02*
X0097787Y0176664D01*
X0097687Y0176065D02*
X0092989Y0176065D01*
X0092989Y0175467D02*
X0097687Y0175467D01*
X0097687Y0174868D02*
X0092989Y0174868D01*
X0092989Y0174270D02*
X0097687Y0174270D01*
X0097886Y0173671D02*
X0092989Y0173671D01*
X0092989Y0173073D02*
X0098134Y0173073D01*
X0098382Y0172474D02*
X0092989Y0172474D01*
X0092989Y0171876D02*
X0098736Y0171876D01*
X0099335Y0171277D02*
X0092989Y0171277D01*
X0092989Y0170679D02*
X0099933Y0170679D01*
X0100119Y0170080D02*
X0092989Y0170080D01*
X0092989Y0169482D02*
X0099521Y0169482D01*
X0098922Y0168883D02*
X0092989Y0168883D01*
X0092989Y0168285D02*
X0098459Y0168285D01*
X0098211Y0167686D02*
X0092989Y0167686D01*
X0092989Y0167088D02*
X0097963Y0167088D01*
X0097715Y0166489D02*
X0092989Y0166489D01*
X0092989Y0165891D02*
X0097687Y0165891D01*
X0097687Y0165292D02*
X0092989Y0165292D01*
X0092989Y0164694D02*
X0097687Y0164694D01*
X0097710Y0164095D02*
X0092989Y0164095D01*
X0092989Y0163497D02*
X0097958Y0163497D01*
X0098206Y0162898D02*
X0092989Y0162898D01*
X0092989Y0162300D02*
X0098454Y0162300D01*
X0098911Y0161701D02*
X0092989Y0161701D01*
X0092989Y0161103D02*
X0099510Y0161103D01*
X0100108Y0160504D02*
X0092989Y0160504D01*
X0092989Y0159906D02*
X0099945Y0159906D01*
X0099346Y0159307D02*
X0092989Y0159307D01*
X0092989Y0158709D02*
X0098748Y0158709D01*
X0098387Y0158110D02*
X0092989Y0158110D01*
X0092989Y0157512D02*
X0098139Y0157512D01*
X0097891Y0156913D02*
X0092989Y0156913D01*
X0092989Y0156315D02*
X0097687Y0156315D01*
X0097687Y0155716D02*
X0092989Y0155716D01*
X0092989Y0155118D02*
X0097687Y0155118D01*
X0097687Y0154519D02*
X0092989Y0154519D01*
X0092989Y0153921D02*
X0097783Y0153921D01*
X0098031Y0153322D02*
X0092989Y0153322D01*
X0092989Y0152723D02*
X0098279Y0152723D01*
X0098527Y0152125D02*
X0092989Y0152125D01*
X0092989Y0151526D02*
X0099086Y0151526D01*
X0099684Y0150928D02*
X0092989Y0150928D01*
X0092989Y0150329D02*
X0100459Y0150329D01*
X0099770Y0149731D02*
X0092989Y0149731D01*
X0092989Y0149132D02*
X0099171Y0149132D01*
X0098573Y0148534D02*
X0092989Y0148534D01*
X0092989Y0147935D02*
X0098314Y0147935D01*
X0098066Y0147337D02*
X0092989Y0147337D01*
X0092989Y0146738D02*
X0097818Y0146738D01*
X0097687Y0146140D02*
X0092989Y0146140D01*
X0092989Y0145541D02*
X0097687Y0145541D01*
X0097687Y0144943D02*
X0092989Y0144943D01*
X0092989Y0144344D02*
X0097687Y0144344D01*
X0097855Y0143746D02*
X0092989Y0143746D01*
X0092989Y0143147D02*
X0098103Y0143147D01*
X0098351Y0142549D02*
X0092989Y0142549D01*
X0092989Y0141950D02*
X0098662Y0141950D01*
X0099260Y0141352D02*
X0092989Y0141352D01*
X0092989Y0140753D02*
X0099859Y0140753D01*
X0100245Y0140155D02*
X0092989Y0140155D01*
X0092989Y0139556D02*
X0099595Y0139556D01*
X0098997Y0138958D02*
X0092989Y0138958D01*
X0092989Y0138359D02*
X0098490Y0138359D01*
X0098242Y0137761D02*
X0092989Y0137761D01*
X0092989Y0137162D02*
X0097994Y0137162D01*
X0097746Y0136564D02*
X0092989Y0136564D01*
X0092989Y0135965D02*
X0097687Y0135965D01*
X0097687Y0135367D02*
X0092989Y0135367D01*
X0092989Y0134768D02*
X0097687Y0134768D01*
X0097687Y0134170D02*
X0092989Y0134170D01*
X0092989Y0133571D02*
X0097928Y0133571D01*
X0098175Y0132973D02*
X0092989Y0132973D01*
X0092989Y0132374D02*
X0098423Y0132374D01*
X0098837Y0131776D02*
X0092989Y0131776D01*
X0092989Y0131177D02*
X0099435Y0131177D01*
X0100034Y0130579D02*
X0092989Y0130579D01*
X0092989Y0129980D02*
X0101303Y0129980D01*
X0105470Y0129980D02*
X0119454Y0129980D01*
X0119454Y0129382D02*
X0092989Y0129382D01*
X0092989Y0128783D02*
X0119454Y0128783D01*
X0119454Y0128185D02*
X0092989Y0128185D01*
X0092989Y0127586D02*
X0119454Y0127586D01*
X0119454Y0126987D02*
X0092989Y0126987D01*
X0092989Y0126389D02*
X0119454Y0126389D01*
X0119454Y0125790D02*
X0092989Y0125790D01*
X0092989Y0125192D02*
X0118930Y0125192D01*
X0118332Y0124593D02*
X0092989Y0124593D01*
X0092989Y0123995D02*
X0117733Y0123995D01*
X0117135Y0123396D02*
X0092989Y0123396D01*
X0092989Y0122798D02*
X0116536Y0122798D01*
X0116179Y0122199D02*
X0093038Y0122199D01*
X0093636Y0121601D02*
X0116179Y0121601D01*
X0116179Y0121002D02*
X0094235Y0121002D01*
X0094833Y0120404D02*
X0100846Y0120404D01*
X0099844Y0119805D02*
X0095432Y0119805D01*
X0096030Y0119207D02*
X0099246Y0119207D01*
X0105927Y0120404D02*
X0116179Y0120404D01*
X0116179Y0119805D02*
X0106929Y0119805D01*
X0107527Y0119207D02*
X0116179Y0119207D01*
X0116179Y0118608D02*
X0108126Y0118608D01*
X0108428Y0118010D02*
X0116302Y0118010D01*
X0116900Y0117411D02*
X0108676Y0117411D01*
X0108924Y0116813D02*
X0117499Y0116813D01*
X0118097Y0116214D02*
X0109087Y0116214D01*
X0109087Y0115616D02*
X0118696Y0115616D01*
X0118755Y0115017D02*
X0109087Y0115017D01*
X0109087Y0114419D02*
X0118157Y0114419D01*
X0117558Y0113820D02*
X0108949Y0113820D01*
X0108701Y0113222D02*
X0116960Y0113222D01*
X0116361Y0112623D02*
X0108453Y0112623D01*
X0108186Y0112025D02*
X0116179Y0112025D01*
X0116179Y0111426D02*
X0107587Y0111426D01*
X0106989Y0110828D02*
X0116179Y0110828D01*
X0116179Y0110229D02*
X0106349Y0110229D01*
X0107104Y0109631D02*
X0116179Y0109631D01*
X0116179Y0109032D02*
X0107702Y0109032D01*
X0110092Y0108434D02*
X0116179Y0108434D01*
X0116476Y0107835D02*
X0110945Y0107835D01*
X0111544Y0107237D02*
X0117075Y0107237D01*
X0117673Y0106638D02*
X0112142Y0106638D01*
X0112741Y0106040D02*
X0118272Y0106040D01*
X0118870Y0105441D02*
X0113339Y0105441D01*
X0113938Y0104843D02*
X0121873Y0104843D01*
X0122472Y0104244D02*
X0114536Y0104244D01*
X0115135Y0103646D02*
X0123070Y0103646D01*
X0123669Y0103047D02*
X0115733Y0103047D01*
X0116332Y0102449D02*
X0124267Y0102449D01*
X0125529Y0101850D02*
X0116930Y0101850D01*
X0112418Y0096463D02*
X0109069Y0096463D01*
X0109087Y0096420D02*
X0108219Y0098515D01*
X0106615Y0100119D01*
X0106210Y0100287D01*
X0106615Y0100454D01*
X0107521Y0101360D01*
X0112900Y0095981D01*
X0113884Y0094997D01*
X0115171Y0094464D01*
X0123519Y0094464D01*
X0128616Y0089367D01*
X0128616Y0087603D01*
X0129468Y0085544D01*
X0131044Y0083969D01*
X0133102Y0083117D01*
X0135330Y0083117D01*
X0137388Y0083969D01*
X0138963Y0085544D01*
X0139164Y0086029D01*
X0139164Y0065804D01*
X0138963Y0066289D01*
X0137388Y0067864D01*
X0135330Y0068717D01*
X0133102Y0068717D01*
X0131044Y0067864D01*
X0129468Y0066289D01*
X0128816Y0064713D01*
X0128816Y0067558D01*
X0128283Y0068844D01*
X0108873Y0088254D01*
X0108203Y0088531D01*
X0106615Y0090119D01*
X0106210Y0090287D01*
X0106615Y0090454D01*
X0108219Y0092058D01*
X0109087Y0094153D01*
X0109087Y0096420D01*
X0109087Y0095865D02*
X0113016Y0095865D01*
X0113615Y0095266D02*
X0109087Y0095266D01*
X0109087Y0094668D02*
X0114678Y0094668D01*
X0111819Y0097062D02*
X0108821Y0097062D01*
X0108573Y0097660D02*
X0111221Y0097660D01*
X0110622Y0098259D02*
X0108325Y0098259D01*
X0107877Y0098857D02*
X0110023Y0098857D01*
X0109425Y0099456D02*
X0107278Y0099456D01*
X0106680Y0100054D02*
X0108826Y0100054D01*
X0108228Y0100653D02*
X0106814Y0100653D01*
X0107413Y0101252D02*
X0107629Y0101252D01*
X0109052Y0094069D02*
X0123913Y0094069D01*
X0124512Y0093471D02*
X0108804Y0093471D01*
X0108556Y0092872D02*
X0125110Y0092872D01*
X0125709Y0092274D02*
X0108308Y0092274D01*
X0107836Y0091675D02*
X0126307Y0091675D01*
X0126906Y0091077D02*
X0107238Y0091077D01*
X0106639Y0090478D02*
X0127504Y0090478D01*
X0128103Y0089880D02*
X0106854Y0089880D01*
X0107453Y0089281D02*
X0128616Y0089281D01*
X0128616Y0088683D02*
X0108051Y0088683D01*
X0109043Y0088084D02*
X0128616Y0088084D01*
X0128664Y0087486D02*
X0109641Y0087486D01*
X0110240Y0086887D02*
X0128912Y0086887D01*
X0129160Y0086289D02*
X0110838Y0086289D01*
X0111437Y0085690D02*
X0129408Y0085690D01*
X0129921Y0085092D02*
X0112035Y0085092D01*
X0112634Y0084493D02*
X0130519Y0084493D01*
X0131223Y0083895D02*
X0113232Y0083895D01*
X0113831Y0083296D02*
X0132668Y0083296D01*
X0135763Y0083296D02*
X0139164Y0083296D01*
X0139164Y0082698D02*
X0114429Y0082698D01*
X0115028Y0082099D02*
X0139164Y0082099D01*
X0139164Y0081501D02*
X0115626Y0081501D01*
X0116225Y0080902D02*
X0139164Y0080902D01*
X0139164Y0080304D02*
X0116823Y0080304D01*
X0117422Y0079705D02*
X0139164Y0079705D01*
X0139164Y0079107D02*
X0118020Y0079107D01*
X0118619Y0078508D02*
X0139164Y0078508D01*
X0139164Y0077910D02*
X0119217Y0077910D01*
X0119816Y0077311D02*
X0139164Y0077311D01*
X0139164Y0076713D02*
X0120414Y0076713D01*
X0121013Y0076114D02*
X0139164Y0076114D01*
X0139164Y0075516D02*
X0121611Y0075516D01*
X0122210Y0074917D02*
X0139164Y0074917D01*
X0139164Y0074319D02*
X0122808Y0074319D01*
X0123407Y0073720D02*
X0139164Y0073720D01*
X0139164Y0073121D02*
X0124005Y0073121D01*
X0124604Y0072523D02*
X0139164Y0072523D01*
X0139164Y0071924D02*
X0125202Y0071924D01*
X0125801Y0071326D02*
X0139164Y0071326D01*
X0139164Y0070727D02*
X0126399Y0070727D01*
X0126998Y0070129D02*
X0139164Y0070129D01*
X0139164Y0069530D02*
X0127596Y0069530D01*
X0128195Y0068932D02*
X0139164Y0068932D01*
X0139164Y0068333D02*
X0136255Y0068333D01*
X0137517Y0067735D02*
X0139164Y0067735D01*
X0139164Y0067136D02*
X0138115Y0067136D01*
X0138714Y0066538D02*
X0139164Y0066538D01*
X0139164Y0065939D02*
X0139108Y0065939D01*
X0132177Y0068333D02*
X0128494Y0068333D01*
X0128742Y0067735D02*
X0130915Y0067735D01*
X0130316Y0067136D02*
X0128816Y0067136D01*
X0128816Y0066538D02*
X0129717Y0066538D01*
X0129324Y0065939D02*
X0128816Y0065939D01*
X0128816Y0065341D02*
X0129076Y0065341D01*
X0128828Y0064742D02*
X0128816Y0064742D01*
X0122644Y0052772D02*
X0072629Y0052772D01*
X0072629Y0052174D02*
X0123243Y0052174D01*
X0123841Y0051575D02*
X0072531Y0051575D01*
X0072283Y0050977D02*
X0102229Y0050977D01*
X0102253Y0050987D02*
X0100158Y0050119D01*
X0098554Y0048515D01*
X0097687Y0046420D01*
X0097687Y0044153D01*
X0098554Y0042058D01*
X0100158Y0040454D01*
X0102253Y0039587D01*
X0104520Y0039587D01*
X0106615Y0040454D01*
X0108219Y0042058D01*
X0109087Y0044153D01*
X0109087Y0046420D01*
X0108219Y0048515D01*
X0106615Y0050119D01*
X0104520Y0050987D01*
X0102253Y0050987D01*
X0100784Y0050378D02*
X0072035Y0050378D01*
X0071543Y0049780D02*
X0099819Y0049780D01*
X0099220Y0049181D02*
X0070945Y0049181D01*
X0070346Y0048583D02*
X0098621Y0048583D01*
X0098334Y0047984D02*
X0069747Y0047984D01*
X0069149Y0047385D02*
X0098086Y0047385D01*
X0097838Y0046787D02*
X0068550Y0046787D01*
X0067952Y0046188D02*
X0097687Y0046188D01*
X0097687Y0045590D02*
X0067353Y0045590D01*
X0066755Y0044991D02*
X0097687Y0044991D01*
X0097687Y0044393D02*
X0066156Y0044393D01*
X0065558Y0043794D02*
X0097835Y0043794D01*
X0098083Y0043196D02*
X0064959Y0043196D01*
X0064361Y0042597D02*
X0098331Y0042597D01*
X0098613Y0041999D02*
X0063762Y0041999D01*
X0062943Y0041400D02*
X0099212Y0041400D01*
X0099810Y0040802D02*
X0016963Y0040802D01*
X0016009Y0040203D02*
X0100764Y0040203D01*
X0102209Y0039605D02*
X0014564Y0039605D01*
X0012209Y0039605D02*
X0005168Y0039605D01*
X0005168Y0040203D02*
X0010764Y0040203D01*
X0009810Y0040802D02*
X0005168Y0040802D01*
X0005168Y0041400D02*
X0009212Y0041400D01*
X0008613Y0041999D02*
X0005168Y0041999D01*
X0005168Y0042597D02*
X0008331Y0042597D01*
X0008083Y0043196D02*
X0005168Y0043196D01*
X0005168Y0043794D02*
X0007835Y0043794D01*
X0007687Y0044393D02*
X0005168Y0044393D01*
X0005168Y0044991D02*
X0007687Y0044991D01*
X0007687Y0045590D02*
X0005168Y0045590D01*
X0005168Y0046188D02*
X0007687Y0046188D01*
X0007838Y0046787D02*
X0005168Y0046787D01*
X0005168Y0047385D02*
X0008086Y0047385D01*
X0008334Y0047984D02*
X0005168Y0047984D01*
X0005168Y0048583D02*
X0008621Y0048583D01*
X0009220Y0049181D02*
X0005168Y0049181D01*
X0005168Y0049780D02*
X0009819Y0049780D01*
X0010784Y0050378D02*
X0005168Y0050378D01*
X0005168Y0050977D02*
X0012229Y0050977D01*
X0014545Y0050977D02*
X0060295Y0050977D01*
X0060893Y0051575D02*
X0005168Y0051575D01*
X0005168Y0052174D02*
X0061492Y0052174D01*
X0062091Y0052772D02*
X0005168Y0052772D01*
X0005168Y0053371D02*
X0062689Y0053371D01*
X0063288Y0053969D02*
X0005168Y0053969D01*
X0005168Y0054568D02*
X0063829Y0054568D01*
X0063829Y0055166D02*
X0005168Y0055166D01*
X0005168Y0055765D02*
X0063829Y0055765D01*
X0063829Y0056363D02*
X0032533Y0056363D01*
X0032380Y0056300D02*
X0035249Y0057488D01*
X0037445Y0059684D01*
X0038633Y0062553D01*
X0038633Y0065658D01*
X0037445Y0068527D01*
X0035249Y0070723D01*
X0032380Y0071911D01*
X0029275Y0071911D01*
X0026406Y0070723D01*
X0024210Y0068527D01*
X0023022Y0065658D01*
X0023022Y0062553D01*
X0024210Y0059684D01*
X0026406Y0057488D01*
X0029275Y0056300D01*
X0032380Y0056300D01*
X0033978Y0056962D02*
X0063829Y0056962D01*
X0063736Y0057560D02*
X0035321Y0057560D01*
X0035919Y0058159D02*
X0063137Y0058159D01*
X0062539Y0058757D02*
X0036518Y0058757D01*
X0037116Y0059356D02*
X0061940Y0059356D01*
X0061500Y0059954D02*
X0037557Y0059954D01*
X0037805Y0060553D02*
X0061252Y0060553D01*
X0061004Y0061151D02*
X0038052Y0061151D01*
X0038300Y0061750D02*
X0060756Y0061750D01*
X0060508Y0062348D02*
X0038548Y0062348D01*
X0038633Y0062947D02*
X0060424Y0062947D01*
X0060424Y0063545D02*
X0038633Y0063545D01*
X0038633Y0064144D02*
X0060424Y0064144D01*
X0060424Y0064742D02*
X0038633Y0064742D01*
X0038633Y0065341D02*
X0060424Y0065341D01*
X0060424Y0065939D02*
X0038517Y0065939D01*
X0038269Y0066538D02*
X0060424Y0066538D01*
X0060424Y0067136D02*
X0038021Y0067136D01*
X0037773Y0067735D02*
X0060424Y0067735D01*
X0060424Y0068333D02*
X0037525Y0068333D01*
X0037040Y0068932D02*
X0060424Y0068932D01*
X0060424Y0069530D02*
X0036441Y0069530D01*
X0035843Y0070129D02*
X0060424Y0070129D01*
X0060424Y0070727D02*
X0035238Y0070727D01*
X0033793Y0071326D02*
X0060424Y0071326D01*
X0060424Y0071924D02*
X0018085Y0071924D01*
X0018219Y0072058D02*
X0019087Y0074153D01*
X0019087Y0076420D01*
X0018219Y0078515D01*
X0016615Y0080119D01*
X0016210Y0080287D01*
X0016615Y0080454D01*
X0018219Y0082058D01*
X0019087Y0084153D01*
X0019087Y0086420D01*
X0018219Y0088515D01*
X0016615Y0090119D01*
X0014520Y0090987D01*
X0012253Y0090987D01*
X0010158Y0090119D01*
X0008554Y0088515D01*
X0007687Y0086420D01*
X0007687Y0084153D01*
X0008554Y0082058D01*
X0010158Y0080454D01*
X0010563Y0080287D01*
X0010158Y0080119D01*
X0008554Y0078515D01*
X0007687Y0076420D01*
X0007687Y0074153D01*
X0008554Y0072058D01*
X0010158Y0070454D01*
X0010563Y0070287D01*
X0010158Y0070119D01*
X0008554Y0068515D01*
X0007687Y0066420D01*
X0007687Y0064153D01*
X0008554Y0062058D01*
X0010158Y0060454D01*
X0012253Y0059587D01*
X0014520Y0059587D01*
X0016615Y0060454D01*
X0018219Y0062058D01*
X0019087Y0064153D01*
X0019087Y0066420D01*
X0018219Y0068515D01*
X0016615Y0070119D01*
X0016210Y0070287D01*
X0016615Y0070454D01*
X0018219Y0072058D01*
X0018412Y0072523D02*
X0060424Y0072523D01*
X0060424Y0073121D02*
X0018659Y0073121D01*
X0018907Y0073720D02*
X0060424Y0073720D01*
X0060424Y0074319D02*
X0019087Y0074319D01*
X0019087Y0074917D02*
X0060424Y0074917D01*
X0060424Y0075516D02*
X0019087Y0075516D01*
X0019087Y0076114D02*
X0060424Y0076114D01*
X0060424Y0076713D02*
X0018966Y0076713D01*
X0018718Y0077311D02*
X0060424Y0077311D01*
X0060606Y0077910D02*
X0018470Y0077910D01*
X0018222Y0078508D02*
X0060854Y0078508D01*
X0061102Y0079107D02*
X0017628Y0079107D01*
X0017029Y0079705D02*
X0061260Y0079705D01*
X0061257Y0080304D02*
X0016251Y0080304D01*
X0017063Y0080902D02*
X0061254Y0080902D01*
X0061252Y0081501D02*
X0017662Y0081501D01*
X0018236Y0082099D02*
X0061249Y0082099D01*
X0061246Y0082698D02*
X0018484Y0082698D01*
X0018732Y0083296D02*
X0061244Y0083296D01*
X0061241Y0083895D02*
X0018980Y0083895D01*
X0019087Y0084493D02*
X0061238Y0084493D01*
X0061236Y0085092D02*
X0019087Y0085092D01*
X0019087Y0085690D02*
X0061233Y0085690D01*
X0061230Y0086289D02*
X0019087Y0086289D01*
X0018893Y0086887D02*
X0061228Y0086887D01*
X0061225Y0087486D02*
X0018645Y0087486D01*
X0018397Y0088084D02*
X0060870Y0088084D01*
X0060272Y0088683D02*
X0018051Y0088683D01*
X0017453Y0089281D02*
X0059673Y0089281D01*
X0059075Y0089880D02*
X0016854Y0089880D01*
X0015748Y0090478D02*
X0058476Y0090478D01*
X0057878Y0091077D02*
X0005168Y0091077D01*
X0005168Y0091675D02*
X0057279Y0091675D01*
X0056681Y0092274D02*
X0005168Y0092274D01*
X0005168Y0092872D02*
X0056082Y0092872D01*
X0055484Y0093471D02*
X0005168Y0093471D01*
X0005168Y0094069D02*
X0054885Y0094069D01*
X0054478Y0094476D02*
X0054478Y0094476D01*
X0054287Y0094668D02*
X0005168Y0094668D01*
X0005168Y0095266D02*
X0053688Y0095266D01*
X0053090Y0095865D02*
X0005168Y0095865D01*
X0005168Y0096463D02*
X0052518Y0096463D01*
X0052270Y0097062D02*
X0005168Y0097062D01*
X0005168Y0097660D02*
X0052022Y0097660D01*
X0051774Y0098259D02*
X0005168Y0098259D01*
X0005168Y0098857D02*
X0051526Y0098857D01*
X0051487Y0099456D02*
X0005168Y0099456D01*
X0005168Y0100054D02*
X0011123Y0100054D01*
X0010158Y0100454D02*
X0012253Y0099587D01*
X0014520Y0099587D01*
X0016615Y0100454D01*
X0018219Y0102058D01*
X0019087Y0104153D01*
X0019087Y0106420D01*
X0018219Y0108515D01*
X0016615Y0110119D01*
X0016210Y0110287D01*
X0016615Y0110454D01*
X0018219Y0112058D01*
X0019087Y0114153D01*
X0019087Y0116420D01*
X0018219Y0118515D01*
X0016615Y0120119D01*
X0016210Y0120287D01*
X0016615Y0120454D01*
X0018219Y0122058D01*
X0019087Y0124153D01*
X0019087Y0126420D01*
X0018219Y0128515D01*
X0016615Y0130119D01*
X0016210Y0130287D01*
X0016615Y0130454D01*
X0018219Y0132058D01*
X0019087Y0134153D01*
X0019087Y0136420D01*
X0018219Y0138515D01*
X0016615Y0140119D01*
X0016210Y0140287D01*
X0016615Y0140454D01*
X0018219Y0142058D01*
X0019087Y0144153D01*
X0019087Y0146420D01*
X0018219Y0148515D01*
X0016615Y0150119D01*
X0016210Y0150287D01*
X0016615Y0150454D01*
X0018219Y0152058D01*
X0019087Y0154153D01*
X0019087Y0156420D01*
X0018219Y0158515D01*
X0016615Y0160119D01*
X0016210Y0160287D01*
X0016615Y0160454D01*
X0018219Y0162058D01*
X0019087Y0164153D01*
X0019087Y0166420D01*
X0018219Y0168515D01*
X0016615Y0170119D01*
X0016210Y0170287D01*
X0016615Y0170454D01*
X0018219Y0172058D01*
X0019087Y0174153D01*
X0019087Y0176420D01*
X0018219Y0178515D01*
X0016615Y0180119D01*
X0016210Y0180287D01*
X0016615Y0180454D01*
X0018219Y0182058D01*
X0019087Y0184153D01*
X0019087Y0186420D01*
X0018219Y0188515D01*
X0016615Y0190119D01*
X0014520Y0190987D01*
X0012253Y0190987D01*
X0010158Y0190119D01*
X0008554Y0188515D01*
X0007687Y0186420D01*
X0007687Y0184153D01*
X0008554Y0182058D01*
X0010158Y0180454D01*
X0010563Y0180287D01*
X0010158Y0180119D01*
X0008554Y0178515D01*
X0007687Y0176420D01*
X0007687Y0174153D01*
X0008554Y0172058D01*
X0010158Y0170454D01*
X0010563Y0170287D01*
X0010158Y0170119D01*
X0008554Y0168515D01*
X0007687Y0166420D01*
X0007687Y0164153D01*
X0008554Y0162058D01*
X0010158Y0160454D01*
X0010563Y0160287D01*
X0010158Y0160119D01*
X0008554Y0158515D01*
X0007687Y0156420D01*
X0007687Y0154153D01*
X0008554Y0152058D01*
X0010158Y0150454D01*
X0010563Y0150287D01*
X0010158Y0150119D01*
X0008554Y0148515D01*
X0007687Y0146420D01*
X0007687Y0144153D01*
X0008554Y0142058D01*
X0010158Y0140454D01*
X0010563Y0140287D01*
X0010158Y0140119D01*
X0008554Y0138515D01*
X0007687Y0136420D01*
X0007687Y0134153D01*
X0008554Y0132058D01*
X0010158Y0130454D01*
X0010563Y0130287D01*
X0010158Y0130119D01*
X0008554Y0128515D01*
X0007687Y0126420D01*
X0007687Y0124153D01*
X0008554Y0122058D01*
X0010158Y0120454D01*
X0010563Y0120287D01*
X0010158Y0120119D01*
X0008554Y0118515D01*
X0007687Y0116420D01*
X0007687Y0114153D01*
X0008554Y0112058D01*
X0010158Y0110454D01*
X0010563Y0110287D01*
X0010158Y0110119D01*
X0008554Y0108515D01*
X0007687Y0106420D01*
X0007687Y0104153D01*
X0008554Y0102058D01*
X0010158Y0100454D01*
X0009959Y0100653D02*
X0005168Y0100653D01*
X0005168Y0101252D02*
X0009361Y0101252D01*
X0008762Y0101850D02*
X0005168Y0101850D01*
X0005168Y0102449D02*
X0008393Y0102449D01*
X0008145Y0103047D02*
X0005168Y0103047D01*
X0005168Y0103646D02*
X0007897Y0103646D01*
X0007687Y0104244D02*
X0005168Y0104244D01*
X0005168Y0104843D02*
X0007687Y0104843D01*
X0007687Y0105441D02*
X0005168Y0105441D01*
X0005168Y0106040D02*
X0007687Y0106040D01*
X0007777Y0106638D02*
X0005168Y0106638D01*
X0005168Y0107237D02*
X0008025Y0107237D01*
X0008273Y0107835D02*
X0005168Y0107835D01*
X0005168Y0108434D02*
X0008521Y0108434D01*
X0009071Y0109032D02*
X0005168Y0109032D01*
X0005168Y0109631D02*
X0009670Y0109631D01*
X0010424Y0110229D02*
X0005168Y0110229D01*
X0005168Y0110828D02*
X0009784Y0110828D01*
X0009186Y0111426D02*
X0005168Y0111426D01*
X0005168Y0112025D02*
X0008587Y0112025D01*
X0008320Y0112623D02*
X0005168Y0112623D01*
X0005168Y0113222D02*
X0008072Y0113222D01*
X0007824Y0113820D02*
X0005168Y0113820D01*
X0005168Y0114419D02*
X0007687Y0114419D01*
X0007687Y0115017D02*
X0005168Y0115017D01*
X0005168Y0115616D02*
X0007687Y0115616D01*
X0007687Y0116214D02*
X0005168Y0116214D01*
X0005168Y0116813D02*
X0007849Y0116813D01*
X0008097Y0117411D02*
X0005168Y0117411D01*
X0005168Y0118010D02*
X0008345Y0118010D01*
X0008647Y0118608D02*
X0005168Y0118608D01*
X0005168Y0119207D02*
X0009246Y0119207D01*
X0009844Y0119805D02*
X0005168Y0119805D01*
X0005168Y0120404D02*
X0010280Y0120404D01*
X0009610Y0121002D02*
X0005168Y0121002D01*
X0005168Y0121601D02*
X0009011Y0121601D01*
X0008496Y0122199D02*
X0005168Y0122199D01*
X0005168Y0122798D02*
X0008248Y0122798D01*
X0008000Y0123396D02*
X0005168Y0123396D01*
X0005168Y0123995D02*
X0007752Y0123995D01*
X0007687Y0124593D02*
X0005168Y0124593D01*
X0005168Y0125192D02*
X0007687Y0125192D01*
X0007687Y0125790D02*
X0005168Y0125790D01*
X0005168Y0126389D02*
X0007687Y0126389D01*
X0007922Y0126987D02*
X0005168Y0126987D01*
X0005168Y0127586D02*
X0008169Y0127586D01*
X0008417Y0128185D02*
X0005168Y0128185D01*
X0005168Y0128783D02*
X0008822Y0128783D01*
X0009421Y0129382D02*
X0005168Y0129382D01*
X0005168Y0129980D02*
X0010019Y0129980D01*
X0010034Y0130579D02*
X0005168Y0130579D01*
X0005168Y0131177D02*
X0009435Y0131177D01*
X0008837Y0131776D02*
X0005168Y0131776D01*
X0005168Y0132374D02*
X0008423Y0132374D01*
X0008175Y0132973D02*
X0005168Y0132973D01*
X0005168Y0133571D02*
X0007928Y0133571D01*
X0007687Y0134170D02*
X0005168Y0134170D01*
X0005168Y0134768D02*
X0007687Y0134768D01*
X0007687Y0135367D02*
X0005168Y0135367D01*
X0005168Y0135965D02*
X0007687Y0135965D01*
X0007746Y0136564D02*
X0005168Y0136564D01*
X0005168Y0137162D02*
X0007994Y0137162D01*
X0008242Y0137761D02*
X0005168Y0137761D01*
X0005168Y0138359D02*
X0008490Y0138359D01*
X0008997Y0138958D02*
X0005168Y0138958D01*
X0005168Y0139556D02*
X0009595Y0139556D01*
X0010245Y0140155D02*
X0005168Y0140155D01*
X0005168Y0140753D02*
X0009859Y0140753D01*
X0009260Y0141352D02*
X0005168Y0141352D01*
X0005168Y0141950D02*
X0008662Y0141950D01*
X0008351Y0142549D02*
X0005168Y0142549D01*
X0005168Y0143147D02*
X0008103Y0143147D01*
X0007855Y0143746D02*
X0005168Y0143746D01*
X0005168Y0144344D02*
X0007687Y0144344D01*
X0007687Y0144943D02*
X0005168Y0144943D01*
X0005168Y0145541D02*
X0007687Y0145541D01*
X0007687Y0146140D02*
X0005168Y0146140D01*
X0005168Y0146738D02*
X0007818Y0146738D01*
X0008066Y0147337D02*
X0005168Y0147337D01*
X0005168Y0147935D02*
X0008314Y0147935D01*
X0008573Y0148534D02*
X0005168Y0148534D01*
X0005168Y0149132D02*
X0009171Y0149132D01*
X0009770Y0149731D02*
X0005168Y0149731D01*
X0005168Y0150329D02*
X0010459Y0150329D01*
X0009684Y0150928D02*
X0005168Y0150928D01*
X0005168Y0151526D02*
X0009086Y0151526D01*
X0008527Y0152125D02*
X0005168Y0152125D01*
X0005168Y0152723D02*
X0008279Y0152723D01*
X0008031Y0153322D02*
X0005168Y0153322D01*
X0005168Y0153921D02*
X0007783Y0153921D01*
X0007687Y0154519D02*
X0005168Y0154519D01*
X0005168Y0155118D02*
X0007687Y0155118D01*
X0007687Y0155716D02*
X0005168Y0155716D01*
X0005168Y0156315D02*
X0007687Y0156315D01*
X0007891Y0156913D02*
X0005168Y0156913D01*
X0005168Y0157512D02*
X0008139Y0157512D01*
X0008387Y0158110D02*
X0005168Y0158110D01*
X0005168Y0158709D02*
X0008748Y0158709D01*
X0009346Y0159307D02*
X0005168Y0159307D01*
X0005168Y0159906D02*
X0009945Y0159906D01*
X0010108Y0160504D02*
X0005168Y0160504D01*
X0005168Y0161103D02*
X0009510Y0161103D01*
X0008911Y0161701D02*
X0005168Y0161701D01*
X0005168Y0162300D02*
X0008454Y0162300D01*
X0008206Y0162898D02*
X0005168Y0162898D01*
X0005168Y0163497D02*
X0007958Y0163497D01*
X0007710Y0164095D02*
X0005168Y0164095D01*
X0005168Y0164694D02*
X0007687Y0164694D01*
X0007687Y0165292D02*
X0005168Y0165292D01*
X0005168Y0165891D02*
X0007687Y0165891D01*
X0007715Y0166489D02*
X0005168Y0166489D01*
X0005168Y0167088D02*
X0007963Y0167088D01*
X0008211Y0167686D02*
X0005168Y0167686D01*
X0005168Y0168285D02*
X0008459Y0168285D01*
X0008922Y0168883D02*
X0005168Y0168883D01*
X0005168Y0169482D02*
X0009521Y0169482D01*
X0010119Y0170080D02*
X0005168Y0170080D01*
X0005168Y0170679D02*
X0009933Y0170679D01*
X0009335Y0171277D02*
X0005168Y0171277D01*
X0005168Y0171876D02*
X0008736Y0171876D01*
X0008382Y0172474D02*
X0005168Y0172474D01*
X0005168Y0173073D02*
X0008134Y0173073D01*
X0007886Y0173671D02*
X0005168Y0173671D01*
X0005168Y0174270D02*
X0007687Y0174270D01*
X0007687Y0174868D02*
X0005168Y0174868D01*
X0005168Y0175467D02*
X0007687Y0175467D01*
X0007687Y0176065D02*
X0005168Y0176065D01*
X0005168Y0176664D02*
X0007787Y0176664D01*
X0008035Y0177262D02*
X0005168Y0177262D01*
X0005168Y0177861D02*
X0008283Y0177861D01*
X0008531Y0178459D02*
X0005168Y0178459D01*
X0005168Y0179058D02*
X0009097Y0179058D01*
X0009695Y0179656D02*
X0005168Y0179656D01*
X0005168Y0180255D02*
X0010487Y0180255D01*
X0009759Y0180854D02*
X0005168Y0180854D01*
X0005168Y0181452D02*
X0009160Y0181452D01*
X0008562Y0182051D02*
X0005168Y0182051D01*
X0005168Y0182649D02*
X0008309Y0182649D01*
X0008062Y0183248D02*
X0005168Y0183248D01*
X0005168Y0183846D02*
X0007814Y0183846D01*
X0007687Y0184445D02*
X0005168Y0184445D01*
X0005168Y0185043D02*
X0007687Y0185043D01*
X0007687Y0185642D02*
X0005168Y0185642D01*
X0005168Y0186240D02*
X0007687Y0186240D01*
X0007860Y0186839D02*
X0005168Y0186839D01*
X0005168Y0187437D02*
X0008108Y0187437D01*
X0008356Y0188036D02*
X0005168Y0188036D01*
X0005168Y0188634D02*
X0008673Y0188634D01*
X0009272Y0189233D02*
X0005168Y0189233D01*
X0005168Y0189831D02*
X0009870Y0189831D01*
X0010908Y0190430D02*
X0005168Y0190430D01*
X0005168Y0191028D02*
X0028896Y0191028D01*
X0028896Y0191627D02*
X0005168Y0191627D01*
X0005168Y0192225D02*
X0028896Y0192225D01*
X0028896Y0192824D02*
X0005168Y0192824D01*
X0005168Y0193422D02*
X0028896Y0193422D01*
X0028896Y0194021D02*
X0005168Y0194021D01*
X0005168Y0194619D02*
X0028896Y0194619D01*
X0028896Y0195218D02*
X0005168Y0195218D01*
X0005168Y0195816D02*
X0028896Y0195816D01*
X0028896Y0196415D02*
X0005168Y0196415D01*
X0005168Y0197013D02*
X0028896Y0197013D01*
X0028896Y0197612D02*
X0005168Y0197612D01*
X0005168Y0198210D02*
X0028896Y0198210D01*
X0028896Y0198809D02*
X0005168Y0198809D01*
X0005168Y0199407D02*
X0028896Y0199407D01*
X0028896Y0200006D02*
X0005168Y0200006D01*
X0005168Y0200604D02*
X0028896Y0200604D01*
X0028896Y0201203D02*
X0005168Y0201203D01*
X0005168Y0201801D02*
X0028896Y0201801D01*
X0028896Y0202400D02*
X0005168Y0202400D01*
X0005168Y0202998D02*
X0028896Y0202998D01*
X0028896Y0203597D02*
X0005168Y0203597D01*
X0005168Y0204195D02*
X0028896Y0204195D01*
X0028896Y0204794D02*
X0005168Y0204794D01*
X0005168Y0205392D02*
X0028896Y0205392D01*
X0028896Y0205991D02*
X0005168Y0205991D01*
X0005168Y0206590D02*
X0028896Y0206590D01*
X0028896Y0207188D02*
X0005168Y0207188D01*
X0005168Y0207787D02*
X0028896Y0207787D01*
X0028896Y0208385D02*
X0005168Y0208385D01*
X0005168Y0208984D02*
X0028896Y0208984D01*
X0028984Y0209582D02*
X0005168Y0209582D01*
X0005168Y0210181D02*
X0029232Y0210181D01*
X0029480Y0210779D02*
X0005168Y0210779D01*
X0005168Y0211378D02*
X0030065Y0211378D01*
X0030663Y0211976D02*
X0005168Y0211976D01*
X0005168Y0212575D02*
X0031262Y0212575D01*
X0031860Y0213173D02*
X0005168Y0213173D01*
X0005168Y0213772D02*
X0032459Y0213772D01*
X0033057Y0214370D02*
X0005168Y0214370D01*
X0005168Y0214969D02*
X0033656Y0214969D01*
X0034254Y0215567D02*
X0005168Y0215567D01*
X0005168Y0216166D02*
X0034853Y0216166D01*
X0035451Y0216764D02*
X0005168Y0216764D01*
X0005168Y0217363D02*
X0035589Y0217363D01*
X0035589Y0217961D02*
X0005168Y0217961D01*
X0005168Y0218560D02*
X0035589Y0218560D01*
X0035589Y0219158D02*
X0005168Y0219158D01*
X0005168Y0219757D02*
X0035589Y0219757D01*
X0035589Y0220355D02*
X0005168Y0220355D01*
X0005168Y0220954D02*
X0035589Y0220954D01*
X0035589Y0221552D02*
X0005168Y0221552D01*
X0005168Y0222151D02*
X0035589Y0222151D01*
X0035589Y0222749D02*
X0005168Y0222749D01*
X0005168Y0223348D02*
X0035589Y0223348D01*
X0035589Y0223946D02*
X0005168Y0223946D01*
X0005168Y0224545D02*
X0035589Y0224545D01*
X0035589Y0225143D02*
X0005168Y0225143D01*
X0005168Y0225742D02*
X0035589Y0225742D01*
X0035589Y0226340D02*
X0005168Y0226340D01*
X0005168Y0226939D02*
X0035589Y0226939D01*
X0035589Y0227537D02*
X0005168Y0227537D01*
X0005168Y0228136D02*
X0035589Y0228136D01*
X0035589Y0228734D02*
X0005168Y0228734D01*
X0005168Y0229333D02*
X0035704Y0229333D01*
X0035952Y0229931D02*
X0005168Y0229931D01*
X0005168Y0230530D02*
X0036225Y0230530D01*
X0036823Y0231128D02*
X0005168Y0231128D01*
X0005168Y0231727D02*
X0037422Y0231727D01*
X0038020Y0232325D02*
X0005168Y0232325D01*
X0005266Y0249682D02*
X0139067Y0249682D01*
X0138816Y0250281D02*
X0005516Y0250281D01*
X0006172Y0250879D02*
X0138160Y0250879D01*
X0118148Y0181452D02*
X0107613Y0181452D01*
X0107015Y0180854D02*
X0116852Y0180854D01*
X0116253Y0180255D02*
X0106287Y0180255D01*
X0107078Y0179656D02*
X0115655Y0179656D01*
X0115056Y0179058D02*
X0107676Y0179058D01*
X0108242Y0178459D02*
X0114636Y0178459D01*
X0114388Y0177861D02*
X0108490Y0177861D01*
X0108738Y0177262D02*
X0114140Y0177262D01*
X0113892Y0176664D02*
X0108986Y0176664D01*
X0109087Y0176065D02*
X0113644Y0176065D01*
X0113573Y0175467D02*
X0109087Y0175467D01*
X0109087Y0174868D02*
X0113573Y0174868D01*
X0113573Y0174270D02*
X0109087Y0174270D01*
X0108887Y0173671D02*
X0113573Y0173671D01*
X0113573Y0173073D02*
X0108639Y0173073D01*
X0108391Y0172474D02*
X0113704Y0172474D01*
X0113952Y0171876D02*
X0108037Y0171876D01*
X0107438Y0171277D02*
X0114199Y0171277D01*
X0114447Y0170679D02*
X0106840Y0170679D01*
X0106654Y0170080D02*
X0114695Y0170080D01*
X0115200Y0169482D02*
X0107252Y0169482D01*
X0107851Y0168883D02*
X0115799Y0168883D01*
X0116397Y0168285D02*
X0108314Y0168285D01*
X0108562Y0167686D02*
X0117050Y0167686D01*
X0118495Y0167088D02*
X0108810Y0167088D01*
X0109058Y0166489D02*
X0139164Y0166489D01*
X0139164Y0165891D02*
X0109087Y0165891D01*
X0109087Y0165292D02*
X0139164Y0165292D01*
X0128709Y0146157D02*
X0129958Y0144907D01*
X0129958Y0142503D01*
X0133004Y0139457D01*
X0137312Y0139457D01*
X0139164Y0141308D01*
X0139164Y0108635D01*
X0137312Y0110487D01*
X0133004Y0110487D01*
X0131304Y0108787D01*
X0127828Y0108787D01*
X0126579Y0110036D01*
X0126579Y0112441D01*
X0123733Y0115287D01*
X0126579Y0118133D01*
X0126579Y0122441D01*
X0126454Y0122566D01*
X0126454Y0139211D01*
X0125921Y0140498D01*
X0124936Y0141482D01*
X0121962Y0144457D01*
X0123533Y0144457D01*
X0125233Y0146157D01*
X0128709Y0146157D01*
X0128725Y0146140D02*
X0125216Y0146140D01*
X0124617Y0145541D02*
X0129324Y0145541D01*
X0129922Y0144943D02*
X0124019Y0144943D01*
X0122672Y0143746D02*
X0129958Y0143746D01*
X0129958Y0144344D02*
X0122074Y0144344D01*
X0123271Y0143147D02*
X0129958Y0143147D01*
X0129958Y0142549D02*
X0123869Y0142549D01*
X0124468Y0141950D02*
X0130511Y0141950D01*
X0131109Y0141352D02*
X0125066Y0141352D01*
X0125665Y0140753D02*
X0131708Y0140753D01*
X0132306Y0140155D02*
X0126063Y0140155D01*
X0126311Y0139556D02*
X0132905Y0139556D01*
X0137412Y0139556D02*
X0139164Y0139556D01*
X0139164Y0138958D02*
X0126454Y0138958D01*
X0126454Y0138359D02*
X0139164Y0138359D01*
X0139164Y0137761D02*
X0126454Y0137761D01*
X0126454Y0137162D02*
X0139164Y0137162D01*
X0139164Y0136564D02*
X0126454Y0136564D01*
X0126454Y0135965D02*
X0139164Y0135965D01*
X0139164Y0135367D02*
X0126454Y0135367D01*
X0126454Y0134768D02*
X0139164Y0134768D01*
X0139164Y0134170D02*
X0126454Y0134170D01*
X0126454Y0133571D02*
X0139164Y0133571D01*
X0139164Y0132973D02*
X0126454Y0132973D01*
X0126454Y0132374D02*
X0139164Y0132374D01*
X0139164Y0131776D02*
X0126454Y0131776D01*
X0126454Y0131177D02*
X0139164Y0131177D01*
X0139164Y0130579D02*
X0126454Y0130579D01*
X0126454Y0129980D02*
X0139164Y0129980D01*
X0139164Y0129382D02*
X0126454Y0129382D01*
X0126454Y0128783D02*
X0139164Y0128783D01*
X0139164Y0128185D02*
X0126454Y0128185D01*
X0126454Y0127586D02*
X0139164Y0127586D01*
X0139164Y0126987D02*
X0126454Y0126987D01*
X0126454Y0126389D02*
X0139164Y0126389D01*
X0139164Y0125790D02*
X0126454Y0125790D01*
X0126454Y0125192D02*
X0139164Y0125192D01*
X0139164Y0124593D02*
X0126454Y0124593D01*
X0126454Y0123995D02*
X0139164Y0123995D01*
X0139164Y0123396D02*
X0126454Y0123396D01*
X0126454Y0122798D02*
X0139164Y0122798D01*
X0139164Y0122199D02*
X0126579Y0122199D01*
X0126579Y0121601D02*
X0139164Y0121601D01*
X0139164Y0121002D02*
X0126579Y0121002D01*
X0126579Y0120404D02*
X0139164Y0120404D01*
X0139164Y0119805D02*
X0126579Y0119805D01*
X0126579Y0119207D02*
X0139164Y0119207D01*
X0139164Y0118608D02*
X0126579Y0118608D01*
X0126456Y0118010D02*
X0139164Y0118010D01*
X0139164Y0117411D02*
X0125857Y0117411D01*
X0125259Y0116813D02*
X0139164Y0116813D01*
X0139164Y0116214D02*
X0124660Y0116214D01*
X0124062Y0115616D02*
X0139164Y0115616D01*
X0139164Y0115017D02*
X0124002Y0115017D01*
X0124600Y0114419D02*
X0139164Y0114419D01*
X0139164Y0113820D02*
X0125199Y0113820D01*
X0125798Y0113222D02*
X0139164Y0113222D01*
X0139164Y0112623D02*
X0126396Y0112623D01*
X0126579Y0112025D02*
X0139164Y0112025D01*
X0139164Y0111426D02*
X0126579Y0111426D01*
X0126579Y0110828D02*
X0139164Y0110828D01*
X0139164Y0110229D02*
X0137570Y0110229D01*
X0138168Y0109631D02*
X0139164Y0109631D01*
X0139164Y0109032D02*
X0138767Y0109032D01*
X0139076Y0101850D02*
X0139164Y0101850D01*
X0139164Y0101252D02*
X0138477Y0101252D01*
X0137879Y0100653D02*
X0139164Y0100653D01*
X0139164Y0100054D02*
X0127828Y0100054D01*
X0128426Y0099456D02*
X0139164Y0099456D01*
X0139164Y0098857D02*
X0129025Y0098857D01*
X0129623Y0098259D02*
X0139164Y0098259D01*
X0139164Y0097660D02*
X0130222Y0097660D01*
X0130820Y0097062D02*
X0139164Y0097062D01*
X0139164Y0096463D02*
X0131419Y0096463D01*
X0132017Y0095865D02*
X0139164Y0095865D01*
X0139164Y0095266D02*
X0132616Y0095266D01*
X0133214Y0094668D02*
X0139164Y0094668D01*
X0139164Y0094069D02*
X0135926Y0094069D01*
X0137371Y0093471D02*
X0139164Y0093471D01*
X0139164Y0092872D02*
X0137980Y0092872D01*
X0138578Y0092274D02*
X0139164Y0092274D01*
X0139164Y0091675D02*
X0139052Y0091675D01*
X0139024Y0085690D02*
X0139164Y0085690D01*
X0139164Y0085092D02*
X0138511Y0085092D01*
X0137912Y0084493D02*
X0139164Y0084493D01*
X0139164Y0083895D02*
X0137208Y0083895D01*
X0132438Y0100653D02*
X0127229Y0100653D01*
X0126177Y0101252D02*
X0131839Y0101252D01*
X0131550Y0109032D02*
X0127583Y0109032D01*
X0126984Y0109631D02*
X0132148Y0109631D01*
X0132747Y0110229D02*
X0126579Y0110229D01*
X0119454Y0130579D02*
X0106740Y0130579D01*
X0107338Y0131177D02*
X0119454Y0131177D01*
X0119454Y0131776D02*
X0107937Y0131776D01*
X0114007Y0132374D02*
X0119454Y0132374D01*
X0119454Y0132973D02*
X0114605Y0132973D01*
X0116618Y0133571D02*
X0119454Y0133571D01*
X0119454Y0134170D02*
X0117216Y0134170D01*
X0117815Y0134768D02*
X0119454Y0134768D01*
X0119454Y0135367D02*
X0118413Y0135367D01*
X0118792Y0135965D02*
X0119454Y0135965D01*
X0119454Y0136564D02*
X0118792Y0136564D01*
X0118792Y0137162D02*
X0119357Y0137162D01*
X0116179Y0159906D02*
X0106829Y0159906D01*
X0106665Y0160504D02*
X0116179Y0160504D01*
X0116179Y0161103D02*
X0107264Y0161103D01*
X0107862Y0161701D02*
X0116179Y0161701D01*
X0116668Y0162300D02*
X0108319Y0162300D01*
X0108567Y0162898D02*
X0117266Y0162898D01*
X0117865Y0163497D02*
X0108815Y0163497D01*
X0109063Y0164095D02*
X0118463Y0164095D01*
X0119062Y0164694D02*
X0109087Y0164694D01*
X0085989Y0177262D02*
X0085612Y0177262D01*
X0085989Y0177861D02*
X0085014Y0177861D01*
X0084415Y0178459D02*
X0085989Y0178459D01*
X0085989Y0179058D02*
X0083817Y0179058D01*
X0083218Y0179656D02*
X0085989Y0179656D01*
X0085989Y0180255D02*
X0082073Y0180255D01*
X0085082Y0183248D02*
X0078697Y0183248D01*
X0077481Y0182649D02*
X0085681Y0182649D01*
X0085989Y0182051D02*
X0065287Y0182051D01*
X0065287Y0182649D02*
X0069292Y0182649D01*
X0068076Y0183248D02*
X0065287Y0183248D01*
X0065287Y0183846D02*
X0067477Y0183846D01*
X0066933Y0184445D02*
X0065287Y0184445D01*
X0065287Y0185043D02*
X0066685Y0185043D01*
X0066437Y0185642D02*
X0065287Y0185642D01*
X0065287Y0186240D02*
X0066287Y0186240D01*
X0066287Y0186839D02*
X0065287Y0186839D01*
X0065287Y0187437D02*
X0066287Y0187437D01*
X0066386Y0188036D02*
X0065287Y0188036D01*
X0065287Y0188634D02*
X0066634Y0188634D01*
X0066882Y0189233D02*
X0065287Y0189233D01*
X0065287Y0189831D02*
X0067353Y0189831D01*
X0067952Y0190430D02*
X0065287Y0190430D01*
X0065287Y0191028D02*
X0068992Y0191028D01*
X0068570Y0180854D02*
X0065287Y0180854D01*
X0065287Y0181452D02*
X0085989Y0181452D01*
X0085989Y0180854D02*
X0078203Y0180854D01*
X0078504Y0173073D02*
X0079903Y0173073D01*
X0080501Y0172474D02*
X0077059Y0172474D01*
X0076882Y0171401D02*
X0069891Y0171401D01*
X0068238Y0170716D01*
X0066972Y0169450D01*
X0066287Y0167796D01*
X0066287Y0166006D01*
X0066972Y0164352D01*
X0068238Y0163086D01*
X0069891Y0162401D01*
X0076882Y0162401D01*
X0078536Y0163086D01*
X0079802Y0164352D01*
X0080487Y0166006D01*
X0080487Y0167796D01*
X0079802Y0169450D01*
X0078536Y0170716D01*
X0076882Y0171401D01*
X0077180Y0171277D02*
X0081658Y0171277D01*
X0081658Y0170679D02*
X0078573Y0170679D01*
X0079171Y0170080D02*
X0081658Y0170080D01*
X0081658Y0169482D02*
X0079770Y0169482D01*
X0080036Y0168883D02*
X0081658Y0168883D01*
X0081658Y0168285D02*
X0080284Y0168285D01*
X0080487Y0167686D02*
X0081658Y0167686D01*
X0081658Y0167088D02*
X0080487Y0167088D01*
X0080487Y0166489D02*
X0081658Y0166489D01*
X0081658Y0165891D02*
X0080439Y0165891D01*
X0080191Y0165292D02*
X0081658Y0165292D01*
X0081658Y0164694D02*
X0079943Y0164694D01*
X0079545Y0164095D02*
X0081658Y0164095D01*
X0081658Y0163497D02*
X0078946Y0163497D01*
X0078083Y0162898D02*
X0081658Y0162898D01*
X0081658Y0162300D02*
X0065287Y0162300D01*
X0065287Y0162898D02*
X0068691Y0162898D01*
X0067827Y0163497D02*
X0065287Y0163497D01*
X0065287Y0164095D02*
X0067228Y0164095D01*
X0066830Y0164694D02*
X0065287Y0164694D01*
X0065287Y0165292D02*
X0066582Y0165292D01*
X0066334Y0165891D02*
X0065287Y0165891D01*
X0065287Y0166489D02*
X0066287Y0166489D01*
X0066287Y0167088D02*
X0065287Y0167088D01*
X0065287Y0167686D02*
X0066287Y0167686D01*
X0066489Y0168285D02*
X0065287Y0168285D01*
X0065287Y0168883D02*
X0066737Y0168883D01*
X0067004Y0169482D02*
X0065287Y0169482D01*
X0065287Y0170080D02*
X0067602Y0170080D01*
X0068201Y0170679D02*
X0065287Y0170679D01*
X0065287Y0171277D02*
X0069593Y0171277D01*
X0069714Y0172474D02*
X0065287Y0172474D01*
X0065287Y0171876D02*
X0081100Y0171876D01*
X0081658Y0161701D02*
X0065287Y0161701D01*
X0065287Y0161103D02*
X0069172Y0161103D01*
X0069891Y0161401D02*
X0068238Y0160716D01*
X0066972Y0159450D01*
X0066287Y0157796D01*
X0066287Y0156006D01*
X0066972Y0154352D01*
X0068238Y0153086D01*
X0069891Y0152401D01*
X0076882Y0152401D01*
X0078536Y0153086D01*
X0079802Y0154352D01*
X0080487Y0156006D01*
X0080487Y0157796D01*
X0079802Y0159450D01*
X0078536Y0160716D01*
X0076882Y0161401D01*
X0069891Y0161401D01*
X0068026Y0160504D02*
X0065287Y0160504D01*
X0065287Y0159906D02*
X0067427Y0159906D01*
X0066913Y0159307D02*
X0065287Y0159307D01*
X0065287Y0158709D02*
X0066665Y0158709D01*
X0066417Y0158110D02*
X0065287Y0158110D01*
X0065287Y0157512D02*
X0066287Y0157512D01*
X0066287Y0156913D02*
X0065287Y0156913D01*
X0065287Y0156315D02*
X0066287Y0156315D01*
X0066407Y0155716D02*
X0065287Y0155716D01*
X0065287Y0155118D02*
X0066654Y0155118D01*
X0066902Y0154519D02*
X0065287Y0154519D01*
X0065287Y0153921D02*
X0067403Y0153921D01*
X0068001Y0153322D02*
X0065287Y0153322D01*
X0065287Y0152723D02*
X0069112Y0152723D01*
X0069891Y0151401D02*
X0068238Y0150716D01*
X0066972Y0149450D01*
X0066287Y0147796D01*
X0066287Y0146006D01*
X0066972Y0144352D01*
X0068238Y0143086D01*
X0069891Y0142401D01*
X0076882Y0142401D01*
X0078536Y0143086D01*
X0079802Y0144352D01*
X0080487Y0146006D01*
X0080487Y0147796D01*
X0079802Y0149450D01*
X0078536Y0150716D01*
X0076882Y0151401D01*
X0069891Y0151401D01*
X0068750Y0150928D02*
X0065287Y0150928D01*
X0065287Y0151526D02*
X0081658Y0151526D01*
X0081658Y0150928D02*
X0078023Y0150928D01*
X0078922Y0150329D02*
X0081658Y0150329D01*
X0081658Y0149731D02*
X0079520Y0149731D01*
X0079933Y0149132D02*
X0081658Y0149132D01*
X0081658Y0148534D02*
X0080181Y0148534D01*
X0080429Y0147935D02*
X0081658Y0147935D01*
X0081658Y0147337D02*
X0080487Y0147337D01*
X0080487Y0146738D02*
X0081658Y0146738D01*
X0081658Y0146140D02*
X0080487Y0146140D01*
X0080294Y0145541D02*
X0081658Y0145541D01*
X0081658Y0144943D02*
X0080046Y0144943D01*
X0079794Y0144344D02*
X0081658Y0144344D01*
X0081658Y0143746D02*
X0079196Y0143746D01*
X0078597Y0143147D02*
X0081658Y0143147D01*
X0081658Y0142549D02*
X0077239Y0142549D01*
X0076882Y0141401D02*
X0069891Y0141401D01*
X0068238Y0140716D01*
X0066972Y0139450D01*
X0066287Y0137796D01*
X0066287Y0136006D01*
X0066972Y0134352D01*
X0068238Y0133086D01*
X0069891Y0132401D01*
X0076882Y0132401D01*
X0078536Y0133086D01*
X0079802Y0134352D01*
X0080487Y0136006D01*
X0080487Y0137796D01*
X0079802Y0139450D01*
X0078536Y0140716D01*
X0076882Y0141401D01*
X0077000Y0141352D02*
X0081658Y0141352D01*
X0081658Y0141950D02*
X0065287Y0141950D01*
X0065287Y0141352D02*
X0069773Y0141352D01*
X0069534Y0142549D02*
X0065287Y0142549D01*
X0065287Y0143147D02*
X0068176Y0143147D01*
X0067578Y0143746D02*
X0065287Y0143746D01*
X0065287Y0144344D02*
X0066979Y0144344D01*
X0066727Y0144943D02*
X0065287Y0144943D01*
X0065287Y0145541D02*
X0066479Y0145541D01*
X0066287Y0146140D02*
X0065287Y0146140D01*
X0065287Y0146738D02*
X0066287Y0146738D01*
X0066287Y0147337D02*
X0065287Y0147337D01*
X0065287Y0147935D02*
X0066344Y0147935D01*
X0066592Y0148534D02*
X0065287Y0148534D01*
X0065287Y0149132D02*
X0066840Y0149132D01*
X0067253Y0149731D02*
X0065287Y0149731D01*
X0065287Y0150329D02*
X0067851Y0150329D01*
X0065287Y0152125D02*
X0081658Y0152125D01*
X0081658Y0152723D02*
X0077661Y0152723D01*
X0078772Y0153322D02*
X0081658Y0153322D01*
X0081658Y0153921D02*
X0079370Y0153921D01*
X0079871Y0154519D02*
X0081658Y0154519D01*
X0081658Y0155118D02*
X0080119Y0155118D01*
X0080367Y0155716D02*
X0081658Y0155716D01*
X0081658Y0156315D02*
X0080487Y0156315D01*
X0080487Y0156913D02*
X0081658Y0156913D01*
X0081658Y0157512D02*
X0080487Y0157512D01*
X0080356Y0158110D02*
X0081658Y0158110D01*
X0081658Y0158709D02*
X0080109Y0158709D01*
X0079861Y0159307D02*
X0081658Y0159307D01*
X0081658Y0159906D02*
X0079346Y0159906D01*
X0078747Y0160504D02*
X0081658Y0160504D01*
X0081658Y0161103D02*
X0077601Y0161103D01*
X0068269Y0173073D02*
X0065287Y0173073D01*
X0065287Y0173671D02*
X0067652Y0173671D01*
X0067054Y0174270D02*
X0065287Y0174270D01*
X0065287Y0174868D02*
X0066758Y0174868D01*
X0066510Y0175467D02*
X0065287Y0175467D01*
X0065287Y0176065D02*
X0066287Y0176065D01*
X0066287Y0176664D02*
X0065287Y0176664D01*
X0065287Y0177262D02*
X0066287Y0177262D01*
X0066314Y0177861D02*
X0065287Y0177861D01*
X0065287Y0178459D02*
X0066561Y0178459D01*
X0066809Y0179058D02*
X0065287Y0179058D01*
X0065287Y0179656D02*
X0067178Y0179656D01*
X0067777Y0180255D02*
X0065287Y0180255D01*
X0051790Y0204794D02*
X0036696Y0204794D01*
X0036696Y0205392D02*
X0052038Y0205392D01*
X0052286Y0205991D02*
X0036696Y0205991D01*
X0036696Y0206590D02*
X0052534Y0206590D01*
X0053128Y0207188D02*
X0036906Y0207188D01*
X0037504Y0207787D02*
X0053727Y0207787D01*
X0054325Y0208385D02*
X0038103Y0208385D01*
X0038701Y0208984D02*
X0054924Y0208984D01*
X0055522Y0209582D02*
X0039300Y0209582D01*
X0039898Y0210181D02*
X0056121Y0210181D01*
X0056719Y0210779D02*
X0040497Y0210779D01*
X0041095Y0211378D02*
X0057318Y0211378D01*
X0057916Y0211976D02*
X0041694Y0211976D01*
X0042292Y0212575D02*
X0058515Y0212575D01*
X0059113Y0213173D02*
X0042835Y0213173D01*
X0043083Y0213772D02*
X0059876Y0213772D01*
X0061321Y0214370D02*
X0043331Y0214370D01*
X0043389Y0216166D02*
X0046476Y0216166D01*
X0045093Y0216764D02*
X0043389Y0216764D01*
X0043389Y0217363D02*
X0044494Y0217363D01*
X0043896Y0217961D02*
X0043389Y0217961D01*
X0043389Y0218560D02*
X0043429Y0218560D01*
X0050297Y0216166D02*
X0066476Y0216166D01*
X0065093Y0216764D02*
X0051681Y0216764D01*
X0052279Y0217363D02*
X0064494Y0217363D01*
X0063896Y0217961D02*
X0052878Y0217961D01*
X0053345Y0218560D02*
X0063429Y0218560D01*
X0063181Y0219158D02*
X0053592Y0219158D01*
X0053840Y0219757D02*
X0062933Y0219757D01*
X0062685Y0220355D02*
X0054088Y0220355D01*
X0054125Y0220954D02*
X0062648Y0220954D01*
X0062648Y0221552D02*
X0054125Y0221552D01*
X0054125Y0222151D02*
X0062361Y0222151D01*
X0061773Y0222749D02*
X0054116Y0222749D01*
X0053868Y0223348D02*
X0061184Y0223348D01*
X0060596Y0223946D02*
X0053620Y0223946D01*
X0053372Y0224545D02*
X0060007Y0224545D01*
X0059419Y0225143D02*
X0052945Y0225143D01*
X0052346Y0225742D02*
X0058830Y0225742D01*
X0058242Y0226340D02*
X0051748Y0226340D01*
X0050459Y0226939D02*
X0057653Y0226939D01*
X0051542Y0204195D02*
X0036696Y0204195D01*
X0036696Y0203597D02*
X0051487Y0203597D01*
X0051487Y0202998D02*
X0036696Y0202998D01*
X0036696Y0202400D02*
X0051487Y0202400D01*
X0051487Y0201801D02*
X0036696Y0201801D01*
X0036696Y0201203D02*
X0039414Y0201203D01*
X0038126Y0200604D02*
X0036696Y0200604D01*
X0036696Y0200006D02*
X0037528Y0200006D01*
X0036954Y0199407D02*
X0036696Y0199407D01*
X0036696Y0198809D02*
X0036706Y0198809D01*
X0036696Y0194619D02*
X0036861Y0194619D01*
X0036696Y0194021D02*
X0037303Y0194021D01*
X0037901Y0193422D02*
X0036696Y0193422D01*
X0036759Y0192824D02*
X0038870Y0192824D01*
X0037956Y0191627D02*
X0051487Y0191627D01*
X0051487Y0192225D02*
X0037357Y0192225D01*
X0038554Y0191028D02*
X0038992Y0191028D01*
X0034107Y0184445D02*
X0019087Y0184445D01*
X0019087Y0185043D02*
X0033508Y0185043D01*
X0032910Y0185642D02*
X0019087Y0185642D01*
X0019087Y0186240D02*
X0032311Y0186240D01*
X0031713Y0186839D02*
X0018913Y0186839D01*
X0018665Y0187437D02*
X0031114Y0187437D01*
X0030516Y0188036D02*
X0018418Y0188036D01*
X0018100Y0188634D02*
X0029917Y0188634D01*
X0029419Y0189233D02*
X0017502Y0189233D01*
X0016903Y0189831D02*
X0029171Y0189831D01*
X0028923Y0190430D02*
X0015865Y0190430D01*
X0018960Y0183846D02*
X0034705Y0183846D01*
X0035795Y0183248D02*
X0018712Y0183248D01*
X0018464Y0182649D02*
X0039292Y0182649D01*
X0039891Y0181401D02*
X0038238Y0180716D01*
X0036972Y0179450D01*
X0036287Y0177796D01*
X0036287Y0176006D01*
X0036972Y0174352D01*
X0038238Y0173086D01*
X0039891Y0172401D01*
X0046882Y0172401D01*
X0048536Y0173086D01*
X0049802Y0174352D01*
X0050487Y0176006D01*
X0050487Y0177796D01*
X0049802Y0179450D01*
X0048536Y0180716D01*
X0046882Y0181401D01*
X0039891Y0181401D01*
X0038570Y0180854D02*
X0017015Y0180854D01*
X0017613Y0181452D02*
X0051487Y0181452D01*
X0051487Y0180854D02*
X0048203Y0180854D01*
X0048996Y0180255D02*
X0051487Y0180255D01*
X0051487Y0179656D02*
X0049595Y0179656D01*
X0049964Y0179058D02*
X0051487Y0179058D01*
X0051487Y0178459D02*
X0050212Y0178459D01*
X0050460Y0177861D02*
X0051487Y0177861D01*
X0051487Y0177262D02*
X0050487Y0177262D01*
X0050487Y0176664D02*
X0051487Y0176664D01*
X0051487Y0176065D02*
X0050487Y0176065D01*
X0050263Y0175467D02*
X0051487Y0175467D01*
X0051487Y0174868D02*
X0050016Y0174868D01*
X0049720Y0174270D02*
X0051487Y0174270D01*
X0051487Y0173671D02*
X0049121Y0173671D01*
X0048504Y0173073D02*
X0051487Y0173073D01*
X0051487Y0172474D02*
X0047059Y0172474D01*
X0046882Y0171401D02*
X0039891Y0171401D01*
X0038238Y0170716D01*
X0036972Y0169450D01*
X0036287Y0167796D01*
X0036287Y0166006D01*
X0036972Y0164352D01*
X0038238Y0163086D01*
X0039891Y0162401D01*
X0046882Y0162401D01*
X0048536Y0163086D01*
X0049802Y0164352D01*
X0050487Y0166006D01*
X0050487Y0167796D01*
X0049802Y0169450D01*
X0048536Y0170716D01*
X0046882Y0171401D01*
X0047180Y0171277D02*
X0051487Y0171277D01*
X0051487Y0170679D02*
X0048573Y0170679D01*
X0049171Y0170080D02*
X0051487Y0170080D01*
X0051487Y0169482D02*
X0049770Y0169482D01*
X0050036Y0168883D02*
X0051487Y0168883D01*
X0051487Y0168285D02*
X0050284Y0168285D01*
X0050487Y0167686D02*
X0051487Y0167686D01*
X0051487Y0167088D02*
X0050487Y0167088D01*
X0050487Y0166489D02*
X0051487Y0166489D01*
X0051487Y0165891D02*
X0050439Y0165891D01*
X0050191Y0165292D02*
X0051487Y0165292D01*
X0051487Y0164694D02*
X0049943Y0164694D01*
X0049545Y0164095D02*
X0051487Y0164095D01*
X0051487Y0163497D02*
X0048946Y0163497D01*
X0048083Y0162898D02*
X0051487Y0162898D01*
X0051487Y0162300D02*
X0018319Y0162300D01*
X0018567Y0162898D02*
X0038691Y0162898D01*
X0037827Y0163497D02*
X0018815Y0163497D01*
X0019063Y0164095D02*
X0037228Y0164095D01*
X0036830Y0164694D02*
X0019087Y0164694D01*
X0019087Y0165292D02*
X0036582Y0165292D01*
X0036334Y0165891D02*
X0019087Y0165891D01*
X0019058Y0166489D02*
X0036287Y0166489D01*
X0036287Y0167088D02*
X0018810Y0167088D01*
X0018562Y0167686D02*
X0036287Y0167686D01*
X0036489Y0168285D02*
X0018314Y0168285D01*
X0017851Y0168883D02*
X0036737Y0168883D01*
X0037004Y0169482D02*
X0017252Y0169482D01*
X0016654Y0170080D02*
X0037602Y0170080D01*
X0038201Y0170679D02*
X0016840Y0170679D01*
X0017438Y0171277D02*
X0039593Y0171277D01*
X0039714Y0172474D02*
X0018391Y0172474D01*
X0018639Y0173073D02*
X0038269Y0173073D01*
X0037652Y0173671D02*
X0018887Y0173671D01*
X0019087Y0174270D02*
X0037054Y0174270D01*
X0036758Y0174868D02*
X0019087Y0174868D01*
X0019087Y0175467D02*
X0036510Y0175467D01*
X0036287Y0176065D02*
X0019087Y0176065D01*
X0018986Y0176664D02*
X0036287Y0176664D01*
X0036287Y0177262D02*
X0018738Y0177262D01*
X0018490Y0177861D02*
X0036314Y0177861D01*
X0036561Y0178459D02*
X0018242Y0178459D01*
X0017676Y0179058D02*
X0036809Y0179058D01*
X0037178Y0179656D02*
X0017078Y0179656D01*
X0016287Y0180255D02*
X0037777Y0180255D01*
X0047481Y0182649D02*
X0051487Y0182649D01*
X0051487Y0182051D02*
X0018212Y0182051D01*
X0018037Y0171876D02*
X0051487Y0171876D01*
X0051487Y0161701D02*
X0017862Y0161701D01*
X0017264Y0161103D02*
X0039172Y0161103D01*
X0039891Y0161401D02*
X0038238Y0160716D01*
X0036972Y0159450D01*
X0036287Y0157796D01*
X0036287Y0156006D01*
X0036972Y0154352D01*
X0038238Y0153086D01*
X0039891Y0152401D01*
X0046882Y0152401D01*
X0048536Y0153086D01*
X0049802Y0154352D01*
X0050487Y0156006D01*
X0050487Y0157796D01*
X0049802Y0159450D01*
X0048536Y0160716D01*
X0046882Y0161401D01*
X0039891Y0161401D01*
X0038026Y0160504D02*
X0016665Y0160504D01*
X0016829Y0159906D02*
X0037427Y0159906D01*
X0036913Y0159307D02*
X0017427Y0159307D01*
X0018026Y0158709D02*
X0036665Y0158709D01*
X0036417Y0158110D02*
X0018387Y0158110D01*
X0018635Y0157512D02*
X0036287Y0157512D01*
X0036287Y0156913D02*
X0018883Y0156913D01*
X0019087Y0156315D02*
X0036287Y0156315D01*
X0036407Y0155716D02*
X0019087Y0155716D01*
X0019087Y0155118D02*
X0036654Y0155118D01*
X0036902Y0154519D02*
X0019087Y0154519D01*
X0018990Y0153921D02*
X0037403Y0153921D01*
X0038001Y0153322D02*
X0018742Y0153322D01*
X0018495Y0152723D02*
X0039112Y0152723D01*
X0039891Y0151401D02*
X0038238Y0150716D01*
X0036972Y0149450D01*
X0036287Y0147796D01*
X0036287Y0146006D01*
X0036972Y0144352D01*
X0038238Y0143086D01*
X0039891Y0142401D01*
X0046882Y0142401D01*
X0048536Y0143086D01*
X0049802Y0144352D01*
X0050487Y0146006D01*
X0050487Y0147796D01*
X0049802Y0149450D01*
X0048536Y0150716D01*
X0046882Y0151401D01*
X0039891Y0151401D01*
X0038750Y0150928D02*
X0017089Y0150928D01*
X0017687Y0151526D02*
X0051487Y0151526D01*
X0051487Y0150928D02*
X0048023Y0150928D01*
X0048922Y0150329D02*
X0051487Y0150329D01*
X0051487Y0149731D02*
X0049520Y0149731D01*
X0049933Y0149132D02*
X0051487Y0149132D01*
X0051487Y0148534D02*
X0050181Y0148534D01*
X0050429Y0147935D02*
X0051487Y0147935D01*
X0051487Y0147337D02*
X0050487Y0147337D01*
X0050487Y0146738D02*
X0051487Y0146738D01*
X0051487Y0146140D02*
X0050487Y0146140D01*
X0050294Y0145541D02*
X0051487Y0145541D01*
X0051487Y0144943D02*
X0050046Y0144943D01*
X0049794Y0144344D02*
X0051487Y0144344D01*
X0051487Y0143746D02*
X0049196Y0143746D01*
X0048597Y0143147D02*
X0051487Y0143147D01*
X0051487Y0142549D02*
X0047239Y0142549D01*
X0046882Y0141401D02*
X0039891Y0141401D01*
X0038238Y0140716D01*
X0036972Y0139450D01*
X0036287Y0137796D01*
X0036287Y0136006D01*
X0036972Y0134352D01*
X0038238Y0133086D01*
X0039891Y0132401D01*
X0046882Y0132401D01*
X0048536Y0133086D01*
X0049802Y0134352D01*
X0050487Y0136006D01*
X0050487Y0137796D01*
X0049802Y0139450D01*
X0048536Y0140716D01*
X0046882Y0141401D01*
X0047000Y0141352D02*
X0051487Y0141352D01*
X0051487Y0141950D02*
X0018111Y0141950D01*
X0018422Y0142549D02*
X0039534Y0142549D01*
X0039773Y0141352D02*
X0017513Y0141352D01*
X0016914Y0140753D02*
X0038328Y0140753D01*
X0037677Y0140155D02*
X0016529Y0140155D01*
X0017178Y0139556D02*
X0037078Y0139556D01*
X0036768Y0138958D02*
X0017777Y0138958D01*
X0018284Y0138359D02*
X0036520Y0138359D01*
X0036287Y0137761D02*
X0018531Y0137761D01*
X0018779Y0137162D02*
X0036287Y0137162D01*
X0036287Y0136564D02*
X0019027Y0136564D01*
X0019087Y0135965D02*
X0036303Y0135965D01*
X0036551Y0135367D02*
X0019087Y0135367D01*
X0019087Y0134768D02*
X0036799Y0134768D01*
X0037154Y0134170D02*
X0019087Y0134170D01*
X0018846Y0133571D02*
X0037752Y0133571D01*
X0038511Y0132973D02*
X0018598Y0132973D01*
X0018350Y0132374D02*
X0051487Y0132374D01*
X0051487Y0131776D02*
X0017937Y0131776D01*
X0017338Y0131177D02*
X0039351Y0131177D01*
X0039891Y0131401D02*
X0038238Y0130716D01*
X0036972Y0129450D01*
X0036287Y0127796D01*
X0036287Y0126006D01*
X0036972Y0124352D01*
X0038238Y0123086D01*
X0039891Y0122401D01*
X0046882Y0122401D01*
X0048536Y0123086D01*
X0049802Y0124352D01*
X0050487Y0126006D01*
X0050487Y0127796D01*
X0049802Y0129450D01*
X0048536Y0130716D01*
X0046882Y0131401D01*
X0039891Y0131401D01*
X0038100Y0130579D02*
X0016740Y0130579D01*
X0016754Y0129980D02*
X0037502Y0129980D01*
X0036943Y0129382D02*
X0017353Y0129382D01*
X0017951Y0128783D02*
X0036696Y0128783D01*
X0036448Y0128185D02*
X0018356Y0128185D01*
X0018604Y0127586D02*
X0036287Y0127586D01*
X0036287Y0126987D02*
X0018852Y0126987D01*
X0019087Y0126389D02*
X0036287Y0126389D01*
X0036376Y0125790D02*
X0019087Y0125790D01*
X0019087Y0125192D02*
X0036624Y0125192D01*
X0036872Y0124593D02*
X0019087Y0124593D01*
X0019021Y0123995D02*
X0037328Y0123995D01*
X0037927Y0123396D02*
X0018773Y0123396D01*
X0018525Y0122798D02*
X0038933Y0122798D01*
X0039891Y0111401D02*
X0038238Y0110716D01*
X0036972Y0109450D01*
X0036287Y0107796D01*
X0036287Y0106006D01*
X0036972Y0104352D01*
X0038238Y0103086D01*
X0039891Y0102401D01*
X0046882Y0102401D01*
X0048536Y0103086D01*
X0049802Y0104352D01*
X0050487Y0106006D01*
X0050487Y0107796D01*
X0049802Y0109450D01*
X0048536Y0110716D01*
X0046882Y0111401D01*
X0039891Y0111401D01*
X0038508Y0110828D02*
X0016989Y0110828D01*
X0017587Y0111426D02*
X0051487Y0111426D01*
X0051487Y0110828D02*
X0048265Y0110828D01*
X0049022Y0110229D02*
X0051487Y0110229D01*
X0051487Y0109631D02*
X0049621Y0109631D01*
X0049975Y0109032D02*
X0051487Y0109032D01*
X0051487Y0108434D02*
X0050222Y0108434D01*
X0050470Y0107835D02*
X0051487Y0107835D01*
X0051487Y0107237D02*
X0050487Y0107237D01*
X0050487Y0106638D02*
X0051487Y0106638D01*
X0051487Y0106040D02*
X0050487Y0106040D01*
X0050253Y0105441D02*
X0051487Y0105441D01*
X0051487Y0104843D02*
X0050005Y0104843D01*
X0049694Y0104244D02*
X0051487Y0104244D01*
X0051487Y0103646D02*
X0049095Y0103646D01*
X0048442Y0103047D02*
X0051487Y0103047D01*
X0051487Y0102449D02*
X0046997Y0102449D01*
X0051487Y0101850D02*
X0018011Y0101850D01*
X0018381Y0102449D02*
X0039776Y0102449D01*
X0038331Y0103047D02*
X0018629Y0103047D01*
X0018876Y0103646D02*
X0037678Y0103646D01*
X0037079Y0104244D02*
X0019087Y0104244D01*
X0019087Y0104843D02*
X0036768Y0104843D01*
X0036520Y0105441D02*
X0019087Y0105441D01*
X0019087Y0106040D02*
X0036287Y0106040D01*
X0036287Y0106638D02*
X0018996Y0106638D01*
X0018749Y0107237D02*
X0036287Y0107237D01*
X0036303Y0107835D02*
X0018501Y0107835D01*
X0018253Y0108434D02*
X0036551Y0108434D01*
X0036799Y0109032D02*
X0017702Y0109032D01*
X0017104Y0109631D02*
X0037153Y0109631D01*
X0037751Y0110229D02*
X0016349Y0110229D01*
X0018186Y0112025D02*
X0051487Y0112025D01*
X0051487Y0112623D02*
X0018453Y0112623D01*
X0018701Y0113222D02*
X0051487Y0113222D01*
X0051487Y0113820D02*
X0018949Y0113820D01*
X0019087Y0114419D02*
X0051487Y0114419D01*
X0051487Y0115017D02*
X0019087Y0115017D01*
X0019087Y0115616D02*
X0051487Y0115616D01*
X0051487Y0116214D02*
X0019087Y0116214D01*
X0018924Y0116813D02*
X0051487Y0116813D01*
X0051487Y0117411D02*
X0018676Y0117411D01*
X0018428Y0118010D02*
X0051487Y0118010D01*
X0051487Y0118608D02*
X0018126Y0118608D01*
X0017527Y0119207D02*
X0051487Y0119207D01*
X0051487Y0119805D02*
X0016929Y0119805D01*
X0016493Y0120404D02*
X0051487Y0120404D01*
X0051487Y0121002D02*
X0017163Y0121002D01*
X0017762Y0121601D02*
X0051487Y0121601D01*
X0051487Y0122199D02*
X0018277Y0122199D01*
X0017413Y0101252D02*
X0051487Y0101252D01*
X0051487Y0100653D02*
X0016814Y0100653D01*
X0015650Y0100054D02*
X0051487Y0100054D01*
X0051487Y0122798D02*
X0047840Y0122798D01*
X0048846Y0123396D02*
X0051487Y0123396D01*
X0051487Y0123995D02*
X0049445Y0123995D01*
X0049902Y0124593D02*
X0051487Y0124593D01*
X0051487Y0125192D02*
X0050150Y0125192D01*
X0050397Y0125790D02*
X0051487Y0125790D01*
X0051487Y0126389D02*
X0050487Y0126389D01*
X0050487Y0126987D02*
X0051487Y0126987D01*
X0051487Y0127586D02*
X0050487Y0127586D01*
X0050326Y0128185D02*
X0051487Y0128185D01*
X0051487Y0128783D02*
X0050078Y0128783D01*
X0049830Y0129382D02*
X0051487Y0129382D01*
X0051487Y0129980D02*
X0049271Y0129980D01*
X0048673Y0130579D02*
X0051487Y0130579D01*
X0051487Y0131177D02*
X0047422Y0131177D01*
X0048262Y0132973D02*
X0051487Y0132973D01*
X0051487Y0133571D02*
X0049021Y0133571D01*
X0049619Y0134170D02*
X0051487Y0134170D01*
X0051487Y0134768D02*
X0049974Y0134768D01*
X0050222Y0135367D02*
X0051487Y0135367D01*
X0051487Y0135965D02*
X0050470Y0135965D01*
X0050487Y0136564D02*
X0051487Y0136564D01*
X0051487Y0137162D02*
X0050487Y0137162D01*
X0050487Y0137761D02*
X0051487Y0137761D01*
X0051487Y0138359D02*
X0050253Y0138359D01*
X0050005Y0138958D02*
X0051487Y0138958D01*
X0051487Y0139556D02*
X0049695Y0139556D01*
X0049097Y0140155D02*
X0051487Y0140155D01*
X0051487Y0140753D02*
X0048445Y0140753D01*
X0051487Y0152125D02*
X0018247Y0152125D01*
X0016314Y0150329D02*
X0037851Y0150329D01*
X0037253Y0149731D02*
X0017003Y0149731D01*
X0017602Y0149132D02*
X0036840Y0149132D01*
X0036592Y0148534D02*
X0018200Y0148534D01*
X0018459Y0147935D02*
X0036344Y0147935D01*
X0036287Y0147337D02*
X0018707Y0147337D01*
X0018955Y0146738D02*
X0036287Y0146738D01*
X0036287Y0146140D02*
X0019087Y0146140D01*
X0019087Y0145541D02*
X0036479Y0145541D01*
X0036727Y0144943D02*
X0019087Y0144943D01*
X0019087Y0144344D02*
X0036979Y0144344D01*
X0037578Y0143746D02*
X0018918Y0143746D01*
X0018670Y0143147D02*
X0038176Y0143147D01*
X0047661Y0152723D02*
X0051487Y0152723D01*
X0051487Y0153322D02*
X0048772Y0153322D01*
X0049370Y0153921D02*
X0051487Y0153921D01*
X0051487Y0154519D02*
X0049871Y0154519D01*
X0050119Y0155118D02*
X0051487Y0155118D01*
X0051487Y0155716D02*
X0050367Y0155716D01*
X0050487Y0156315D02*
X0051487Y0156315D01*
X0051487Y0156913D02*
X0050487Y0156913D01*
X0050487Y0157512D02*
X0051487Y0157512D01*
X0051487Y0158110D02*
X0050356Y0158110D01*
X0050109Y0158709D02*
X0051487Y0158709D01*
X0051487Y0159307D02*
X0049861Y0159307D01*
X0049346Y0159906D02*
X0051487Y0159906D01*
X0051487Y0160504D02*
X0048747Y0160504D01*
X0047601Y0161103D02*
X0051487Y0161103D01*
X0051487Y0183248D02*
X0048697Y0183248D01*
X0049296Y0183846D02*
X0051487Y0183846D01*
X0051487Y0184445D02*
X0049840Y0184445D01*
X0050088Y0185043D02*
X0051487Y0185043D01*
X0051487Y0185642D02*
X0050336Y0185642D01*
X0050487Y0186240D02*
X0051487Y0186240D01*
X0051487Y0186839D02*
X0050487Y0186839D01*
X0050487Y0187437D02*
X0051487Y0187437D01*
X0051487Y0188036D02*
X0050387Y0188036D01*
X0050139Y0188634D02*
X0051487Y0188634D01*
X0051487Y0189233D02*
X0049891Y0189233D01*
X0049420Y0189831D02*
X0051487Y0189831D01*
X0051487Y0190430D02*
X0048822Y0190430D01*
X0047781Y0191028D02*
X0051487Y0191028D01*
X0051487Y0192824D02*
X0047903Y0192824D01*
X0048872Y0193422D02*
X0051487Y0193422D01*
X0051487Y0194021D02*
X0049471Y0194021D01*
X0049912Y0194619D02*
X0051487Y0194619D01*
X0051487Y0195218D02*
X0050160Y0195218D01*
X0050408Y0195816D02*
X0051487Y0195816D01*
X0051487Y0196415D02*
X0050487Y0196415D01*
X0050487Y0197013D02*
X0051487Y0197013D01*
X0051487Y0197612D02*
X0050487Y0197612D01*
X0050315Y0198210D02*
X0051487Y0198210D01*
X0051487Y0198809D02*
X0050067Y0198809D01*
X0049819Y0199407D02*
X0051487Y0199407D01*
X0051487Y0200006D02*
X0049245Y0200006D01*
X0048647Y0200604D02*
X0051487Y0200604D01*
X0051487Y0201203D02*
X0047359Y0201203D01*
X0065287Y0140753D02*
X0068328Y0140753D01*
X0067677Y0140155D02*
X0065287Y0140155D01*
X0065287Y0139556D02*
X0067078Y0139556D01*
X0066768Y0138958D02*
X0065287Y0138958D01*
X0065287Y0138359D02*
X0066520Y0138359D01*
X0066287Y0137761D02*
X0065287Y0137761D01*
X0065287Y0137162D02*
X0066287Y0137162D01*
X0066287Y0136564D02*
X0065287Y0136564D01*
X0065287Y0135965D02*
X0066303Y0135965D01*
X0066551Y0135367D02*
X0065287Y0135367D01*
X0065287Y0134768D02*
X0066799Y0134768D01*
X0067154Y0134170D02*
X0065287Y0134170D01*
X0065287Y0133571D02*
X0067752Y0133571D01*
X0068511Y0132973D02*
X0065287Y0132973D01*
X0065287Y0132374D02*
X0081658Y0132374D01*
X0081658Y0131776D02*
X0065287Y0131776D01*
X0065287Y0131177D02*
X0069351Y0131177D01*
X0069891Y0131401D02*
X0068238Y0130716D01*
X0066972Y0129450D01*
X0066287Y0127796D01*
X0066287Y0126006D01*
X0066972Y0124352D01*
X0068238Y0123086D01*
X0069891Y0122401D01*
X0076882Y0122401D01*
X0078536Y0123086D01*
X0079802Y0124352D01*
X0080487Y0126006D01*
X0080487Y0127796D01*
X0079802Y0129450D01*
X0078536Y0130716D01*
X0076882Y0131401D01*
X0069891Y0131401D01*
X0068100Y0130579D02*
X0065287Y0130579D01*
X0065287Y0129980D02*
X0067502Y0129980D01*
X0066943Y0129382D02*
X0065287Y0129382D01*
X0065287Y0128783D02*
X0066696Y0128783D01*
X0066448Y0128185D02*
X0065287Y0128185D01*
X0065287Y0127586D02*
X0066287Y0127586D01*
X0066287Y0126987D02*
X0065287Y0126987D01*
X0065287Y0126389D02*
X0066287Y0126389D01*
X0066376Y0125790D02*
X0065287Y0125790D01*
X0065287Y0125192D02*
X0066624Y0125192D01*
X0066872Y0124593D02*
X0065287Y0124593D01*
X0065287Y0123995D02*
X0067328Y0123995D01*
X0067927Y0123396D02*
X0065287Y0123396D01*
X0065287Y0122798D02*
X0068933Y0122798D01*
X0069891Y0121401D02*
X0068238Y0120716D01*
X0066972Y0119450D01*
X0066287Y0117796D01*
X0066287Y0116006D01*
X0066972Y0114352D01*
X0068238Y0113086D01*
X0069891Y0112401D01*
X0076882Y0112401D01*
X0078536Y0113086D01*
X0079802Y0114352D01*
X0080487Y0116006D01*
X0080487Y0117796D01*
X0079802Y0119450D01*
X0078536Y0120716D01*
X0076882Y0121401D01*
X0069891Y0121401D01*
X0068930Y0121002D02*
X0065287Y0121002D01*
X0065287Y0120404D02*
X0067926Y0120404D01*
X0067327Y0119805D02*
X0065287Y0119805D01*
X0065287Y0119207D02*
X0066871Y0119207D01*
X0066623Y0118608D02*
X0065287Y0118608D01*
X0065287Y0118010D02*
X0066375Y0118010D01*
X0066287Y0117411D02*
X0065287Y0117411D01*
X0065287Y0116813D02*
X0066287Y0116813D01*
X0066287Y0116214D02*
X0065287Y0116214D01*
X0065287Y0115616D02*
X0066448Y0115616D01*
X0066696Y0115017D02*
X0065287Y0115017D01*
X0065287Y0114419D02*
X0066944Y0114419D01*
X0067503Y0113820D02*
X0065287Y0113820D01*
X0065287Y0113222D02*
X0068102Y0113222D01*
X0069354Y0112623D02*
X0065287Y0112623D01*
X0065287Y0112025D02*
X0081987Y0112025D01*
X0081739Y0112623D02*
X0077419Y0112623D01*
X0076882Y0111401D02*
X0069891Y0111401D01*
X0068238Y0110716D01*
X0066972Y0109450D01*
X0066287Y0107796D01*
X0066287Y0106006D01*
X0066972Y0104352D01*
X0068238Y0103086D01*
X0069891Y0102401D01*
X0076882Y0102401D01*
X0078536Y0103086D01*
X0079802Y0104352D01*
X0080487Y0106006D01*
X0080487Y0107796D01*
X0079802Y0109450D01*
X0078536Y0110716D01*
X0076882Y0111401D01*
X0078265Y0110828D02*
X0082896Y0110828D01*
X0082297Y0111426D02*
X0065287Y0111426D01*
X0065287Y0110828D02*
X0068508Y0110828D01*
X0067751Y0110229D02*
X0065287Y0110229D01*
X0065287Y0109631D02*
X0067153Y0109631D01*
X0066799Y0109032D02*
X0065287Y0109032D01*
X0065287Y0108434D02*
X0066551Y0108434D01*
X0066303Y0107835D02*
X0065287Y0107835D01*
X0065287Y0107237D02*
X0066287Y0107237D01*
X0066287Y0106638D02*
X0065287Y0106638D01*
X0065287Y0106040D02*
X0066287Y0106040D01*
X0066520Y0105441D02*
X0065287Y0105441D01*
X0065287Y0104843D02*
X0066768Y0104843D01*
X0067079Y0104244D02*
X0065287Y0104244D01*
X0065287Y0103646D02*
X0067678Y0103646D01*
X0068331Y0103047D02*
X0065424Y0103047D01*
X0066022Y0102449D02*
X0069776Y0102449D01*
X0068416Y0100054D02*
X0093669Y0100054D01*
X0094267Y0099456D02*
X0069015Y0099456D01*
X0069613Y0098857D02*
X0094866Y0098857D01*
X0095465Y0098259D02*
X0070212Y0098259D01*
X0070810Y0097660D02*
X0096063Y0097660D01*
X0096662Y0097062D02*
X0071409Y0097062D01*
X0072007Y0096463D02*
X0097260Y0096463D01*
X0097687Y0095865D02*
X0072606Y0095865D01*
X0073206Y0095266D02*
X0097687Y0095266D01*
X0097687Y0094668D02*
X0073810Y0094668D01*
X0074143Y0094069D02*
X0097721Y0094069D01*
X0097969Y0093471D02*
X0074391Y0093471D01*
X0074641Y0092872D02*
X0098217Y0092872D01*
X0098465Y0092274D02*
X0074892Y0092274D01*
X0075011Y0091675D02*
X0098937Y0091675D01*
X0099535Y0091077D02*
X0075011Y0091077D01*
X0075012Y0090478D02*
X0100134Y0090478D01*
X0099919Y0089880D02*
X0075014Y0089880D01*
X0075017Y0089281D02*
X0099320Y0089281D01*
X0098722Y0088683D02*
X0075020Y0088683D01*
X0075022Y0088084D02*
X0098376Y0088084D01*
X0098128Y0087486D02*
X0075025Y0087486D01*
X0075028Y0086887D02*
X0097880Y0086887D01*
X0097687Y0086289D02*
X0075030Y0086289D01*
X0075033Y0085690D02*
X0097687Y0085690D01*
X0097687Y0085092D02*
X0075036Y0085092D01*
X0075038Y0084493D02*
X0097687Y0084493D01*
X0097794Y0083895D02*
X0075041Y0083895D01*
X0075044Y0083296D02*
X0098041Y0083296D01*
X0098289Y0082698D02*
X0075046Y0082698D01*
X0075049Y0082099D02*
X0098537Y0082099D01*
X0099112Y0081501D02*
X0075052Y0081501D01*
X0075054Y0080902D02*
X0099710Y0080902D01*
X0100522Y0080304D02*
X0075057Y0080304D01*
X0075108Y0079705D02*
X0099744Y0079705D01*
X0099146Y0079107D02*
X0075356Y0079107D01*
X0075604Y0078508D02*
X0098551Y0078508D01*
X0098303Y0077910D02*
X0075852Y0077910D01*
X0076035Y0077311D02*
X0098056Y0077311D01*
X0097808Y0076713D02*
X0076035Y0076713D01*
X0076035Y0076114D02*
X0097687Y0076114D01*
X0097687Y0075516D02*
X0076035Y0075516D01*
X0076035Y0074917D02*
X0097687Y0074917D01*
X0097687Y0074319D02*
X0076035Y0074319D01*
X0076035Y0073720D02*
X0097866Y0073720D01*
X0098114Y0073121D02*
X0076035Y0073121D01*
X0076035Y0072523D02*
X0098362Y0072523D01*
X0098688Y0071924D02*
X0076035Y0071924D01*
X0076035Y0071326D02*
X0099286Y0071326D01*
X0099885Y0070727D02*
X0076035Y0070727D01*
X0076035Y0070129D02*
X0100182Y0070129D01*
X0099569Y0069530D02*
X0076035Y0069530D01*
X0076035Y0068932D02*
X0098971Y0068932D01*
X0098479Y0068333D02*
X0076035Y0068333D01*
X0076035Y0067735D02*
X0098231Y0067735D01*
X0097983Y0067136D02*
X0076035Y0067136D01*
X0076035Y0066538D02*
X0097735Y0066538D01*
X0097687Y0065939D02*
X0076035Y0065939D01*
X0076035Y0065341D02*
X0097687Y0065341D01*
X0097687Y0064742D02*
X0076035Y0064742D01*
X0076035Y0064144D02*
X0097690Y0064144D01*
X0097938Y0063545D02*
X0076035Y0063545D01*
X0076035Y0062947D02*
X0098186Y0062947D01*
X0098434Y0062348D02*
X0075950Y0062348D01*
X0075702Y0061750D02*
X0098862Y0061750D01*
X0099461Y0061151D02*
X0075454Y0061151D01*
X0075206Y0060553D02*
X0100059Y0060553D01*
X0101365Y0059954D02*
X0074958Y0059954D01*
X0074518Y0059356D02*
X0112257Y0059356D01*
X0111664Y0059954D02*
X0105408Y0059954D01*
X0106714Y0060553D02*
X0111416Y0060553D01*
X0111168Y0061151D02*
X0107312Y0061151D01*
X0107911Y0061750D02*
X0110920Y0061750D01*
X0110816Y0062348D02*
X0108339Y0062348D01*
X0108587Y0062947D02*
X0110816Y0062947D01*
X0110816Y0063545D02*
X0108835Y0063545D01*
X0109083Y0064144D02*
X0110816Y0064144D01*
X0111028Y0064742D02*
X0109087Y0064742D01*
X0109087Y0065341D02*
X0111276Y0065341D01*
X0111524Y0065939D02*
X0109087Y0065939D01*
X0109038Y0066538D02*
X0111917Y0066538D01*
X0112516Y0067136D02*
X0108790Y0067136D01*
X0108542Y0067735D02*
X0113115Y0067735D01*
X0114377Y0068333D02*
X0108294Y0068333D01*
X0107802Y0068932D02*
X0118296Y0068932D01*
X0118455Y0068333D02*
X0118894Y0068333D01*
X0117697Y0069530D02*
X0107204Y0069530D01*
X0106591Y0070129D02*
X0117098Y0070129D01*
X0116500Y0070727D02*
X0106888Y0070727D01*
X0107487Y0071326D02*
X0115901Y0071326D01*
X0115303Y0071924D02*
X0108085Y0071924D01*
X0108412Y0072523D02*
X0114704Y0072523D01*
X0114106Y0073121D02*
X0108659Y0073121D01*
X0108907Y0073720D02*
X0113507Y0073720D01*
X0112909Y0074319D02*
X0109087Y0074319D01*
X0109087Y0074917D02*
X0112310Y0074917D01*
X0111712Y0075516D02*
X0109087Y0075516D01*
X0109087Y0076114D02*
X0111113Y0076114D01*
X0110515Y0076713D02*
X0108966Y0076713D01*
X0108718Y0077311D02*
X0109916Y0077311D01*
X0109318Y0077910D02*
X0108470Y0077910D01*
X0108222Y0078508D02*
X0108719Y0078508D01*
X0108121Y0079107D02*
X0107628Y0079107D01*
X0107522Y0079705D02*
X0107029Y0079705D01*
X0106924Y0080304D02*
X0106251Y0080304D01*
X0112855Y0058757D02*
X0073919Y0058757D01*
X0073321Y0058159D02*
X0113752Y0058159D01*
X0115196Y0057560D02*
X0072722Y0057560D01*
X0072629Y0056962D02*
X0121816Y0056962D01*
X0121816Y0057560D02*
X0117635Y0057560D01*
X0119080Y0058159D02*
X0121816Y0058159D01*
X0121816Y0058757D02*
X0119976Y0058757D01*
X0120575Y0059356D02*
X0121816Y0059356D01*
X0121816Y0059954D02*
X0121167Y0059954D01*
X0121415Y0060553D02*
X0121816Y0060553D01*
X0121816Y0061151D02*
X0121663Y0061151D01*
X0121816Y0056363D02*
X0072629Y0056363D01*
X0072629Y0055765D02*
X0121816Y0055765D01*
X0121816Y0055166D02*
X0072629Y0055166D01*
X0072629Y0054568D02*
X0121816Y0054568D01*
X0121975Y0053969D02*
X0072629Y0053969D01*
X0072629Y0053371D02*
X0122223Y0053371D01*
X0124440Y0050977D02*
X0104545Y0050977D01*
X0105990Y0050378D02*
X0125038Y0050378D01*
X0125637Y0049780D02*
X0106955Y0049780D01*
X0107553Y0049181D02*
X0126235Y0049181D01*
X0126834Y0048583D02*
X0108152Y0048583D01*
X0108439Y0047984D02*
X0127432Y0047984D01*
X0128031Y0047385D02*
X0108687Y0047385D01*
X0108935Y0046787D02*
X0128629Y0046787D01*
X0129462Y0046188D02*
X0109087Y0046188D01*
X0109087Y0045590D02*
X0130053Y0045590D01*
X0130651Y0044991D02*
X0109087Y0044991D01*
X0109087Y0044393D02*
X0131541Y0044393D01*
X0132986Y0043794D02*
X0108938Y0043794D01*
X0108690Y0043196D02*
X0139164Y0043196D01*
X0139164Y0043794D02*
X0135445Y0043794D01*
X0136890Y0044393D02*
X0139164Y0044393D01*
X0139164Y0044991D02*
X0137780Y0044991D01*
X0138379Y0045590D02*
X0139164Y0045590D01*
X0139164Y0046188D02*
X0138969Y0046188D01*
X0139164Y0042597D02*
X0108442Y0042597D01*
X0108160Y0041999D02*
X0139164Y0041999D01*
X0139164Y0041400D02*
X0107561Y0041400D01*
X0106963Y0040802D02*
X0139164Y0040802D01*
X0139164Y0040203D02*
X0106009Y0040203D01*
X0104564Y0039605D02*
X0139164Y0039605D01*
X0139164Y0039006D02*
X0005168Y0039006D01*
X0005168Y0038408D02*
X0139164Y0038408D01*
X0139164Y0037809D02*
X0005168Y0037809D01*
X0005168Y0037211D02*
X0139164Y0037211D01*
X0139164Y0036612D02*
X0005168Y0036612D01*
X0005168Y0036014D02*
X0099184Y0036014D01*
X0099354Y0036084D02*
X0096485Y0034896D01*
X0094289Y0032700D01*
X0093101Y0029831D01*
X0093101Y0026726D01*
X0094289Y0023857D01*
X0096485Y0021662D01*
X0099354Y0020473D01*
X0102459Y0020473D01*
X0105328Y0021662D01*
X0107523Y0023857D01*
X0108712Y0026726D01*
X0108712Y0029831D01*
X0107523Y0032700D01*
X0105328Y0034896D01*
X0102459Y0036084D01*
X0099354Y0036084D01*
X0097739Y0035415D02*
X0005168Y0035415D01*
X0005168Y0034817D02*
X0096406Y0034817D01*
X0095807Y0034218D02*
X0005168Y0034218D01*
X0005168Y0033620D02*
X0095209Y0033620D01*
X0094610Y0033021D02*
X0005168Y0033021D01*
X0005168Y0032423D02*
X0094174Y0032423D01*
X0093926Y0031824D02*
X0005168Y0031824D01*
X0005168Y0031226D02*
X0093678Y0031226D01*
X0093430Y0030627D02*
X0005168Y0030627D01*
X0005168Y0030029D02*
X0093183Y0030029D01*
X0093101Y0029430D02*
X0082416Y0029430D01*
X0083012Y0029183D02*
X0081084Y0029982D01*
X0078997Y0029982D01*
X0077068Y0029183D01*
X0075592Y0027707D01*
X0074794Y0025779D01*
X0074794Y0023692D01*
X0075592Y0021764D01*
X0077068Y0020288D01*
X0078997Y0019489D01*
X0081084Y0019489D01*
X0083012Y0020288D01*
X0084488Y0021764D01*
X0085287Y0023692D01*
X0085287Y0025779D01*
X0084488Y0027707D01*
X0083012Y0029183D01*
X0083364Y0028832D02*
X0093101Y0028832D01*
X0093101Y0028233D02*
X0083962Y0028233D01*
X0084518Y0027635D02*
X0093101Y0027635D01*
X0093101Y0027036D02*
X0084766Y0027036D01*
X0085014Y0026438D02*
X0093220Y0026438D01*
X0093468Y0025839D02*
X0085262Y0025839D01*
X0085287Y0025241D02*
X0093716Y0025241D01*
X0093964Y0024642D02*
X0085287Y0024642D01*
X0085287Y0024044D02*
X0094212Y0024044D01*
X0094701Y0023445D02*
X0085184Y0023445D01*
X0084936Y0022847D02*
X0095300Y0022847D01*
X0095898Y0022248D02*
X0084689Y0022248D01*
X0084374Y0021650D02*
X0096514Y0021650D01*
X0097959Y0021051D02*
X0083775Y0021051D01*
X0083177Y0020452D02*
X0111790Y0020452D01*
X0111471Y0021051D02*
X0103854Y0021051D01*
X0105299Y0021650D02*
X0111223Y0021650D01*
X0110975Y0022248D02*
X0105914Y0022248D01*
X0106513Y0022847D02*
X0110816Y0022847D01*
X0110816Y0023445D02*
X0107111Y0023445D01*
X0107601Y0024044D02*
X0110816Y0024044D01*
X0110816Y0024642D02*
X0107849Y0024642D01*
X0108096Y0025241D02*
X0110973Y0025241D01*
X0111221Y0025839D02*
X0108344Y0025839D01*
X0108592Y0026438D02*
X0111469Y0026438D01*
X0111786Y0027036D02*
X0108712Y0027036D01*
X0108712Y0027635D02*
X0112384Y0027635D01*
X0112983Y0028233D02*
X0108712Y0028233D01*
X0108712Y0028832D02*
X0114059Y0028832D01*
X0118772Y0028832D02*
X0131859Y0028832D01*
X0130783Y0028233D02*
X0119849Y0028233D01*
X0120447Y0027635D02*
X0130184Y0027635D01*
X0129586Y0027036D02*
X0121046Y0027036D01*
X0121362Y0026438D02*
X0129269Y0026438D01*
X0129021Y0025839D02*
X0121610Y0025839D01*
X0121858Y0025241D02*
X0128773Y0025241D01*
X0128616Y0024642D02*
X0122016Y0024642D01*
X0122016Y0024044D02*
X0128616Y0024044D01*
X0128616Y0023445D02*
X0122016Y0023445D01*
X0122016Y0022847D02*
X0128616Y0022847D01*
X0128775Y0022248D02*
X0121856Y0022248D01*
X0121609Y0021650D02*
X0129023Y0021650D01*
X0129271Y0021051D02*
X0121361Y0021051D01*
X0121041Y0020452D02*
X0129590Y0020452D01*
X0130189Y0019854D02*
X0120443Y0019854D01*
X0119844Y0019255D02*
X0130787Y0019255D01*
X0136572Y0028832D02*
X0139164Y0028832D01*
X0139164Y0029430D02*
X0108712Y0029430D01*
X0108630Y0030029D02*
X0139164Y0030029D01*
X0139164Y0030627D02*
X0108382Y0030627D01*
X0108134Y0031226D02*
X0139164Y0031226D01*
X0139164Y0031824D02*
X0107886Y0031824D01*
X0107638Y0032423D02*
X0139164Y0032423D01*
X0139164Y0033021D02*
X0107202Y0033021D01*
X0106604Y0033620D02*
X0139164Y0033620D01*
X0139164Y0034218D02*
X0106005Y0034218D01*
X0105407Y0034817D02*
X0139164Y0034817D01*
X0139164Y0035415D02*
X0104074Y0035415D01*
X0102629Y0036014D02*
X0139164Y0036014D01*
X0139164Y0028233D02*
X0137649Y0028233D01*
X0138247Y0027635D02*
X0139164Y0027635D01*
X0139164Y0027036D02*
X0138846Y0027036D01*
X0139162Y0026438D02*
X0139164Y0026438D01*
X0112987Y0019255D02*
X0005923Y0019255D01*
X0005434Y0019854D02*
X0034808Y0019854D01*
X0035689Y0019489D02*
X0033761Y0020288D01*
X0032285Y0021764D01*
X0031487Y0023692D01*
X0031487Y0025779D01*
X0032285Y0027707D01*
X0033761Y0029183D01*
X0035689Y0029982D01*
X0037777Y0029982D01*
X0039705Y0029183D01*
X0041181Y0027707D01*
X0041980Y0025779D01*
X0041980Y0023692D01*
X0041181Y0021764D01*
X0039705Y0020288D01*
X0037777Y0019489D01*
X0035689Y0019489D01*
X0033596Y0020452D02*
X0005203Y0020452D01*
X0005168Y0021051D02*
X0032998Y0021051D01*
X0032399Y0021650D02*
X0005168Y0021650D01*
X0005168Y0022248D02*
X0032085Y0022248D01*
X0031837Y0022847D02*
X0005168Y0022847D01*
X0005168Y0023445D02*
X0031589Y0023445D01*
X0031487Y0024044D02*
X0005168Y0024044D01*
X0005168Y0024642D02*
X0031487Y0024642D01*
X0031487Y0025241D02*
X0005168Y0025241D01*
X0005168Y0025839D02*
X0031512Y0025839D01*
X0031759Y0026438D02*
X0005168Y0026438D01*
X0005168Y0027036D02*
X0032007Y0027036D01*
X0032255Y0027635D02*
X0005168Y0027635D01*
X0005168Y0028233D02*
X0032811Y0028233D01*
X0033410Y0028832D02*
X0005168Y0028832D01*
X0005168Y0029430D02*
X0034358Y0029430D01*
X0039109Y0029430D02*
X0077665Y0029430D01*
X0076717Y0028832D02*
X0040056Y0028832D01*
X0040655Y0028233D02*
X0076118Y0028233D01*
X0075562Y0027635D02*
X0041211Y0027635D01*
X0041459Y0027036D02*
X0075314Y0027036D01*
X0075066Y0026438D02*
X0041707Y0026438D01*
X0041955Y0025839D02*
X0074819Y0025839D01*
X0074794Y0025241D02*
X0041980Y0025241D01*
X0041980Y0024642D02*
X0074794Y0024642D01*
X0074794Y0024044D02*
X0041980Y0024044D01*
X0041877Y0023445D02*
X0074896Y0023445D01*
X0075144Y0022847D02*
X0041629Y0022847D01*
X0041381Y0022248D02*
X0075392Y0022248D01*
X0075706Y0021650D02*
X0041067Y0021650D01*
X0040468Y0021051D02*
X0076305Y0021051D01*
X0076903Y0020452D02*
X0039870Y0020452D01*
X0038658Y0019854D02*
X0078115Y0019854D01*
X0081965Y0019854D02*
X0112389Y0019854D01*
X0093070Y0100653D02*
X0067818Y0100653D01*
X0067219Y0101252D02*
X0092472Y0101252D01*
X0091873Y0101850D02*
X0066621Y0101850D01*
X0076997Y0102449D02*
X0091275Y0102449D01*
X0090676Y0103047D02*
X0078442Y0103047D01*
X0079095Y0103646D02*
X0090078Y0103646D01*
X0089479Y0104244D02*
X0079694Y0104244D01*
X0080005Y0104843D02*
X0088881Y0104843D01*
X0088282Y0105441D02*
X0080253Y0105441D01*
X0080487Y0106040D02*
X0087684Y0106040D01*
X0087085Y0106638D02*
X0080487Y0106638D01*
X0080487Y0107237D02*
X0086487Y0107237D01*
X0085888Y0107835D02*
X0080470Y0107835D01*
X0080222Y0108434D02*
X0085290Y0108434D01*
X0084691Y0109032D02*
X0079975Y0109032D01*
X0079621Y0109631D02*
X0084093Y0109631D01*
X0083494Y0110229D02*
X0079022Y0110229D01*
X0078672Y0113222D02*
X0081658Y0113222D01*
X0081658Y0113820D02*
X0079270Y0113820D01*
X0079829Y0114419D02*
X0081658Y0114419D01*
X0081658Y0115017D02*
X0080077Y0115017D01*
X0080325Y0115616D02*
X0081658Y0115616D01*
X0081658Y0116214D02*
X0080487Y0116214D01*
X0080487Y0116813D02*
X0081658Y0116813D01*
X0081658Y0117411D02*
X0080487Y0117411D01*
X0080398Y0118010D02*
X0081658Y0118010D01*
X0081658Y0118608D02*
X0080150Y0118608D01*
X0079902Y0119207D02*
X0081658Y0119207D01*
X0081658Y0119805D02*
X0079446Y0119805D01*
X0078847Y0120404D02*
X0081658Y0120404D01*
X0081658Y0121002D02*
X0077844Y0121002D01*
X0077840Y0122798D02*
X0081658Y0122798D01*
X0081658Y0123396D02*
X0078846Y0123396D01*
X0079445Y0123995D02*
X0081658Y0123995D01*
X0081658Y0124593D02*
X0079902Y0124593D01*
X0080150Y0125192D02*
X0081658Y0125192D01*
X0081658Y0125790D02*
X0080397Y0125790D01*
X0080487Y0126389D02*
X0081658Y0126389D01*
X0081658Y0126987D02*
X0080487Y0126987D01*
X0080487Y0127586D02*
X0081658Y0127586D01*
X0081658Y0128185D02*
X0080326Y0128185D01*
X0080078Y0128783D02*
X0081658Y0128783D01*
X0081658Y0129382D02*
X0079830Y0129382D01*
X0079271Y0129980D02*
X0081658Y0129980D01*
X0081658Y0130579D02*
X0078673Y0130579D01*
X0077422Y0131177D02*
X0081658Y0131177D01*
X0081658Y0132973D02*
X0078262Y0132973D01*
X0079021Y0133571D02*
X0081658Y0133571D01*
X0081658Y0134170D02*
X0079619Y0134170D01*
X0079974Y0134768D02*
X0081658Y0134768D01*
X0081658Y0135367D02*
X0080222Y0135367D01*
X0080470Y0135965D02*
X0081658Y0135965D01*
X0081658Y0136564D02*
X0080487Y0136564D01*
X0080487Y0137162D02*
X0081658Y0137162D01*
X0081658Y0137761D02*
X0080487Y0137761D01*
X0080253Y0138359D02*
X0081658Y0138359D01*
X0081658Y0138958D02*
X0080005Y0138958D01*
X0079695Y0139556D02*
X0081658Y0139556D01*
X0081658Y0140155D02*
X0079097Y0140155D01*
X0078445Y0140753D02*
X0081658Y0140753D01*
X0081658Y0122199D02*
X0065287Y0122199D01*
X0065287Y0121601D02*
X0081658Y0121601D01*
X0059696Y0050378D02*
X0015990Y0050378D01*
X0016955Y0049780D02*
X0059098Y0049780D01*
X0029122Y0056363D02*
X0005168Y0056363D01*
X0005168Y0056962D02*
X0027677Y0056962D01*
X0026334Y0057560D02*
X0005168Y0057560D01*
X0005168Y0058159D02*
X0025736Y0058159D01*
X0025137Y0058757D02*
X0005168Y0058757D01*
X0005168Y0059356D02*
X0024539Y0059356D01*
X0024098Y0059954D02*
X0015408Y0059954D01*
X0016714Y0060553D02*
X0023851Y0060553D01*
X0023603Y0061151D02*
X0017312Y0061151D01*
X0017911Y0061750D02*
X0023355Y0061750D01*
X0023107Y0062348D02*
X0018339Y0062348D01*
X0018587Y0062947D02*
X0023022Y0062947D01*
X0023022Y0063545D02*
X0018835Y0063545D01*
X0019083Y0064144D02*
X0023022Y0064144D01*
X0023022Y0064742D02*
X0019087Y0064742D01*
X0019087Y0065341D02*
X0023022Y0065341D01*
X0023139Y0065939D02*
X0019087Y0065939D01*
X0019038Y0066538D02*
X0023386Y0066538D01*
X0023634Y0067136D02*
X0018790Y0067136D01*
X0018542Y0067735D02*
X0023882Y0067735D01*
X0024130Y0068333D02*
X0018294Y0068333D01*
X0017802Y0068932D02*
X0024615Y0068932D01*
X0025214Y0069530D02*
X0017204Y0069530D01*
X0016591Y0070129D02*
X0025812Y0070129D01*
X0026418Y0070727D02*
X0016888Y0070727D01*
X0017487Y0071326D02*
X0027862Y0071326D01*
X0010522Y0080304D02*
X0005168Y0080304D01*
X0005168Y0080902D02*
X0009710Y0080902D01*
X0009112Y0081501D02*
X0005168Y0081501D01*
X0005168Y0082099D02*
X0008537Y0082099D01*
X0008289Y0082698D02*
X0005168Y0082698D01*
X0005168Y0083296D02*
X0008041Y0083296D01*
X0007794Y0083895D02*
X0005168Y0083895D01*
X0005168Y0084493D02*
X0007687Y0084493D01*
X0007687Y0085092D02*
X0005168Y0085092D01*
X0005168Y0085690D02*
X0007687Y0085690D01*
X0007687Y0086289D02*
X0005168Y0086289D01*
X0005168Y0086887D02*
X0007880Y0086887D01*
X0008128Y0087486D02*
X0005168Y0087486D01*
X0005168Y0088084D02*
X0008376Y0088084D01*
X0008722Y0088683D02*
X0005168Y0088683D01*
X0005168Y0089281D02*
X0009320Y0089281D01*
X0009919Y0089880D02*
X0005168Y0089880D01*
X0005168Y0090478D02*
X0011026Y0090478D01*
X0009744Y0079705D02*
X0005168Y0079705D01*
X0005168Y0079107D02*
X0009146Y0079107D01*
X0008551Y0078508D02*
X0005168Y0078508D01*
X0005168Y0077910D02*
X0008303Y0077910D01*
X0008056Y0077311D02*
X0005168Y0077311D01*
X0005168Y0076713D02*
X0007808Y0076713D01*
X0007687Y0076114D02*
X0005168Y0076114D01*
X0005168Y0075516D02*
X0007687Y0075516D01*
X0007687Y0074917D02*
X0005168Y0074917D01*
X0005168Y0074319D02*
X0007687Y0074319D01*
X0007866Y0073720D02*
X0005168Y0073720D01*
X0005168Y0073121D02*
X0008114Y0073121D01*
X0008362Y0072523D02*
X0005168Y0072523D01*
X0005168Y0071924D02*
X0008688Y0071924D01*
X0009286Y0071326D02*
X0005168Y0071326D01*
X0005168Y0070727D02*
X0009885Y0070727D01*
X0010182Y0070129D02*
X0005168Y0070129D01*
X0005168Y0069530D02*
X0009569Y0069530D01*
X0008971Y0068932D02*
X0005168Y0068932D01*
X0005168Y0068333D02*
X0008479Y0068333D01*
X0008231Y0067735D02*
X0005168Y0067735D01*
X0005168Y0067136D02*
X0007983Y0067136D01*
X0007735Y0066538D02*
X0005168Y0066538D01*
X0005168Y0065939D02*
X0007687Y0065939D01*
X0007687Y0065341D02*
X0005168Y0065341D01*
X0005168Y0064742D02*
X0007687Y0064742D01*
X0007690Y0064144D02*
X0005168Y0064144D01*
X0005168Y0063545D02*
X0007938Y0063545D01*
X0008186Y0062947D02*
X0005168Y0062947D01*
X0005168Y0062348D02*
X0008434Y0062348D01*
X0008862Y0061750D02*
X0005168Y0061750D01*
X0005168Y0061151D02*
X0009461Y0061151D01*
X0010059Y0060553D02*
X0005168Y0060553D01*
X0005168Y0059954D02*
X0011365Y0059954D01*
X0138010Y0140155D02*
X0139164Y0140155D01*
X0139164Y0140753D02*
X0138609Y0140753D01*
D22*
X0125316Y0186153D03*
X0118229Y0193633D03*
X0113111Y0206231D03*
X0105237Y0205444D03*
X0098544Y0209775D03*
X0094213Y0202294D03*
X0083583Y0196389D03*
X0081615Y0207806D03*
X0063505Y0207806D03*
X0058387Y0189302D03*
X0058387Y0160956D03*
X0058387Y0128672D03*
X0058387Y0100326D03*
X0048938Y0095208D03*
X0039489Y0095602D03*
X0037520Y0086546D03*
X0038308Y0081035D03*
X0038702Y0074735D03*
X0039489Y0070011D03*
X0030434Y0081822D03*
X0028859Y0095995D03*
X0028072Y0112137D03*
X0029253Y0131822D03*
X0029646Y0153082D03*
X0028465Y0172373D03*
X0025316Y0194027D03*
X0022560Y0212924D03*
X0018623Y0219617D03*
X0021379Y0227491D03*
X0028072Y0230641D03*
X0126497Y0245208D03*
X0131615Y0242452D03*
X0129253Y0225523D03*
X0135158Y0225523D03*
X0133190Y0193633D03*
X0077284Y0054657D03*
X0069804Y0043633D03*
X0061143Y0037334D03*
X0049331Y0036940D03*
X0046182Y0053082D03*
X0035946Y0053082D03*
X0027678Y0052294D03*
X0028072Y0036546D03*
D23*
X0103387Y0095287D02*
X0085158Y0113515D01*
X0085158Y0172767D01*
X0081024Y0176901D01*
X0073387Y0176901D01*
X0073387Y0186901D02*
X0086379Y0186901D01*
X0089489Y0183791D01*
X0089489Y0120798D01*
X0095001Y0115287D01*
X0103387Y0115287D01*
X0103387Y0105287D02*
X0108544Y0105287D01*
X0115867Y0097964D01*
X0124969Y0097964D01*
X0134216Y0088717D01*
X0135158Y0105287D02*
X0126379Y0105287D01*
X0121379Y0110287D01*
X0121379Y0120287D02*
X0122954Y0121861D01*
X0122954Y0138515D01*
X0116182Y0145287D01*
X0103387Y0145287D01*
X0103387Y0155287D02*
X0104331Y0156231D01*
X0117954Y0156231D01*
X0121379Y0159657D01*
X0121379Y0149657D02*
X0130158Y0149657D01*
X0135158Y0144657D01*
X0114292Y0137609D02*
X0111969Y0135287D01*
X0103387Y0135287D01*
X0103387Y0085287D02*
X0106891Y0085287D01*
X0125316Y0066861D01*
X0125316Y0055050D01*
X0131020Y0049346D01*
X0134216Y0049346D01*
D24*
X0068229Y0064106D02*
X0068111Y0090602D01*
X0058387Y0100326D01*
X0058387Y0128672D01*
X0058387Y0160956D01*
X0058387Y0189302D01*
X0058387Y0202688D01*
X0063505Y0207806D01*
X0081615Y0207806D01*
X0088269Y0214460D01*
X0088387Y0221586D01*
X0097993Y0231586D01*
X0098269Y0231586D01*
X0106812Y0223043D01*
X0106812Y0233397D01*
X0125316Y0214893D01*
X0125316Y0207720D01*
X0118316Y0233397D02*
X0106812Y0233397D01*
X0099804Y0233397D01*
X0097993Y0231586D01*
D25*
X0068229Y0064106D02*
X0068229Y0052688D01*
X0060828Y0045287D01*
X0013387Y0045287D01*
D26*
X0037166Y0186901D02*
X0032796Y0191271D01*
X0032796Y0208594D01*
X0039489Y0215287D01*
X0039489Y0228279D01*
X0042245Y0231035D01*
X0059095Y0231035D01*
X0068387Y0221586D01*
X0043387Y0186901D02*
X0037166Y0186901D01*
M02*
